<?xml version="1.0" encoding="UTF-16"?> <svg xmlns="http://www.w3.org/2000/svg" xmlns:xlink="http://www.w3.org/1999/xlink" xmlns:xodm="http://www.corel.com/coreldraw/odm/2003" xml:space="preserve" width="155.985mm" height="72.6363mm" version="1.1" style="shape-rendering:geometricPrecision; text-rendering:geometricPrecision; image-rendering:optimizeQuality; fill-rule:evenodd; clip-rule:evenodd" viewBox="0 0 1117.85 520.54"> <defs> <style type="text/css"> .fil1 {fill:#8B8C3A} .fil0 {fill:#8B8C3A;fill-rule:nonzero} </style> </defs> <g id="Слой_x0020_1"> <metadata id="CorelCorpID_0Corel-Layer"></metadata> <g id="_2326325363328"> <path class="fil0" d="M392.92 295.63c0,8.06 -5.48,16.39 -16.45,25.01 -7.38,5.82 -16.45,11.19 -27.19,16.11 -13.54,6.27 -29.15,10.97 -46.83,14.1 -6.94,11.64 -13.93,23.33 -20.98,35.08 -8.39,13.54 -16.39,24.62 -24,33.23 -9.62,10.97 -19.97,19.58 -31.05,25.85 -2.24,1.23 -4.03,2.01 -5.37,2.35l0 0.17c3.58,0.22 8.39,0.34 14.43,0.34 6.94,0 12.7,-1.29 17.29,-3.86 1.45,-0.78 6.15,-4.31 14.1,-10.57l0.34 0.17 0.17 0.34c-0.22,0.56 -0.62,1.12 -1.18,1.68 -10.52,11.19 -22.04,16.78 -34.58,16.78 -1.68,0 -4.11,-0.36 -7.3,-1.09 -3.19,-0.73 -5.57,-1.09 -7.13,-1.09 -0.67,0 -2.52,0.25 -5.54,0.76 -3.02,0.5 -5.32,0.76 -6.88,0.76 -4.81,0 -7.22,-1.18 -7.22,-3.52 0,-1.34 1.96,-2.01 5.87,-2.01 1.57,0 3.94,0.14 7.13,0.42 3.19,0.28 5.57,0.42 7.13,0.42 11.08,-4.7 22.72,-15.5 34.91,-32.39 3.69,-5.15 12.14,-18.74 25.34,-40.79 3.47,-5.71 8,-12.81 13.6,-21.32 -10.07,1.23 -18.18,1.85 -24.34,1.85 -11.86,12.31 -23.78,24.45 -35.75,36.42 16,4.14 24.62,8.9 25.85,14.27l0 0.17c-3.13,-3.58 -12.59,-7.38 -28.37,-11.41 -23.72,23.72 -46.55,41.07 -68.48,52.03 -25.4,12.87 -53.21,19.3 -83.42,19.3 -6.49,0 -12.92,-0.5 -19.3,-1.51 0.45,18.63 10.07,32.95 28.87,43 15.11,7.92 32.95,11.89 53.54,11.89 21.15,0 39.5,-3.92 55.05,-11.72 16,-8.14 24,-17.34 24,-27.58 0,-4.48 -1.23,-8.11 -3.69,-10.88 -0.45,-0.34 -0.95,-0.95 -1.51,-1.85 0.11,-0.11 0.28,-0.17 0.5,-0.17 2.01,0 3.97,1.76 5.87,5.29 1.9,3.53 2.85,6.46 2.85,8.81 0,10.63 -8.56,20.03 -25.68,28.2 -16.67,7.94 -35.81,11.92 -57.4,11.92 -22.16,0 -40.67,-3.97 -55.56,-11.92 -18.91,-10.07 -28.42,-25.18 -28.53,-45.32 -16.34,-2.8 -29.37,-8.45 -39.11,-16.95 -11.3,-9.73 -16.95,-22.38 -16.95,-37.93 0,-10.85 3.3,-21.32 9.9,-31.39 5.93,-9.06 13.88,-16.84 23.83,-23.33 21.71,-14.21 46.21,-21.32 73.52,-21.32 17.01,0 32.06,2.74 45.15,8.2 17.46,7.36 26.18,18.3 26.18,32.79 0,3.8 -0.56,7.64 -1.68,11.55 0.56,0 1.62,0 3.19,0 1.32,0 2.43,0 3.33,0 14.6,0 27.89,1.23 39.81,3.69 5.06,-4.7 16.64,-16.08 34.77,-34.21 -18.13,-0.45 -33.85,-3.41 -47.19,-8.9 -18.69,-7.5 -28.03,-18.74 -28.03,-33.77 0,-10.18 4.48,-18.35 13.43,-24.51 7.94,-5.37 17.23,-8.06 27.86,-8.06 11.97,0 21.09,2.85 27.36,8.56 4.03,3.69 6.04,7.11 6.04,10.24 0,1.23 -0.22,1.85 -0.67,1.85 -1.01,-6.43 -5.09,-11.3 -12.25,-14.57 -5.82,-2.71 -12.36,-4.06 -19.64,-4.06 -10.07,0 -18.74,2.57 -26.02,7.75 -8.06,5.71 -12.08,13.46 -12.08,23.22 0,14.46 9.06,25.29 27.19,32.45 12.76,5.06 27.86,7.8 45.32,8.25 45.32,-47.33 83.42,-71 114.3,-71 12.87,0 19.3,4.59 19.3,13.76zm-2.18 0c0,-4.14 -1.85,-7.27 -5.54,-9.4 -2.91,-1.79 -6.57,-2.69 -11.05,-2.69 -18.55,0 -38.16,7.94 -58.83,23.83 -11.86,9.06 -27.55,24.17 -47.11,45.32 7.5,-0.22 15.55,-1.01 24.17,-2.35 10.63,-15.67 20.98,-28.7 31.05,-39.11 15.55,-16 29.04,-24 40.45,-24 4.92,0 7.05,0.67 6.38,2.01l-0.67 0.5 -5.04 -1.01c-8.62,0 -17.57,4.53 -26.86,13.6 -5.37,5.26 -11.92,13.43 -19.64,24.51 -6.49,9.4 -11.3,16.62 -14.44,21.65 17.65,-3.92 32.51,-8.84 44.56,-14.77 28.37,-13.88 42.55,-26.58 42.55,-38.1zm-217.69 92.48c-18.01,0.78 -35.02,3.72 -51.02,8.81 -19.13,5.87 -34.18,14.07 -45.15,24.56l0 0.17c6.15,1.26 12.03,1.87 17.62,1.87 15.11,0 29.82,-2.77 44.14,-8.31 17.12,-6.66 28.59,-15.69 34.41,-27.11zm47.5 3.86c-11.97,-2.57 -25.4,-3.86 -40.28,-3.86 -1.45,0 -2.97,0.06 -4.53,0.17 -5.26,12.64 -16.17,22.6 -32.73,29.88 -14.32,6.38 -29.2,9.57 -44.65,9.57 -8.95,0 -16.9,-1.18 -23.83,-3.53 -10.63,10.41 -16.17,22.55 -16.62,36.42 6.04,1.12 12.53,1.68 19.47,1.68 27.19,0 53.37,-6.83 78.55,-20.48 20.14,-10.85 41.68,-27.47 64.62,-49.85zm-43.64 -18.46c0,-13.09 -9.01,-22.55 -27.02,-28.37 -12.08,-3.92 -26.35,-5.87 -42.8,-5.87 -24.17,0 -46.66,5.43 -67.47,16.28 -25.18,13.2 -37.77,30.77 -37.77,52.7 0,14.77 5.54,26.86 16.62,36.25 9.4,7.94 21.93,13.32 37.6,16.11 0.45,-13.43 5.82,-25.79 16.11,-37.09 -14.99,-5.48 -22.49,-13.26 -22.49,-23.33 0,-1.12 0.17,-2.63 0.5,-4.53 0.45,-2.35 0.95,-3.52 1.51,-3.52 0.34,0 0.62,0.06 0.84,0.17 -0.11,0.45 -0.39,1.73 -0.84,3.86 -0.34,1.68 -0.5,2.91 -0.5,3.69 0,5.15 2.8,9.79 8.39,13.93 4.25,3.02 9.34,5.43 15.27,7.22 11.3,-11.3 26.8,-20.14 46.49,-26.52 16.56,-5.37 34.3,-8.45 53.21,-9.23 1.57,-3.8 2.35,-7.72 2.35,-11.75zm137.63 31.22c-0.22,1.9 -2.18,3.89 -5.87,5.96 -3.69,2.07 -6.6,3.11 -8.73,3.11 -1.12,0 -2.32,-0.36 -3.61,-1.09 -1.29,-0.73 -1.93,-1.59 -1.93,-2.6l0 -4.2c0.56,-1.23 1.34,-1.85 2.35,-1.85 1.79,0 2.69,0.73 2.69,2.18 0,1.57 -1.01,2.91 -3.02,4.03 0.56,1.34 1.79,2.01 3.69,2.01 2.13,0 5.01,-1.29 8.64,-3.86 3.64,-2.57 5.48,-3.86 5.54,-3.86 0.06,0 0.14,0.06 0.25,0.17zm7.39 28.03c-0.22,1.68 -4.03,5.32 -11.41,10.91 -5.93,4.48 -10.74,6.71 -14.43,6.71 -3.47,0 -5.2,-1.34 -5.2,-4.03 0,-3.36 3.08,-8.11 9.23,-14.27l-0.34 -0.34c-14.99,12.42 -24.95,18.63 -29.88,18.63 -3.69,0 -5.54,-1.34 -5.54,-4.03 0,-4.36 5.04,-11.36 15.11,-20.98l0 -0.17c-1.79,1.23 -4.48,3.25 -8.06,6.04 -1.34,1.23 -3.36,2.97 -6.04,5.2 -0.67,0.45 -1.23,0.67 -1.68,0.67 -0.11,-0.11 -0.17,-0.28 -0.17,-0.5 0,-1.45 3.3,-4.42 9.9,-8.9 6.6,-4.48 11.47,-6.71 14.6,-6.71 1.23,0 1.96,0.17 2.18,0.5 -0.11,0.22 -3.19,4.2 -9.23,11.92 -5.04,6.38 -7.55,10.35 -7.55,11.92 0.11,0.11 0.28,0.34 0.5,0.67 0.22,0.34 0.56,0.5 1.01,0.5 2.8,0 13.99,-8 33.57,-24 1.45,-1.23 3.08,-1.85 4.87,-1.85 2.35,0 3.52,0.28 3.52,0.84 0,0.67 -2.82,4.31 -8.48,10.91 -5.65,6.6 -8.48,10.8 -8.48,12.59 0,0.45 0.11,0.81 0.34,1.09 0.22,0.28 0.56,0.42 1.01,0.42 3.8,0 9.96,-4.25 18.46,-12.76l2.18 -1.01zm17.96 -34.58c0.34,-3.02 1.43,-5.73 3.27,-8.14 1.85,-2.41 4.28,-4.42 7.3,-6.04 3.02,-1.62 6.46,-2.82 10.32,-3.61 3.86,-0.78 7.97,-1.12 12.34,-1.01 4.25,0.11 8.84,0.53 13.76,1.26 4.92,0.73 9.62,1.48 14.1,2.27 3.92,0.67 8.28,1.34 13.09,2.01 4.81,0.67 9.9,1.17 15.27,1.51 7.39,0.34 13.51,-0.39 18.38,-2.18 4.87,-1.79 7.64,-4.64 8.31,-8.56 0.67,-3.69 -0.78,-6.91 -4.36,-9.65 -3.58,-2.74 -8.73,-4.11 -15.44,-4.11 -4.7,0 -8.9,0.81 -12.59,2.43 -3.69,1.62 -6.6,3.66 -8.73,6.13 -1.23,1.23 -2.07,2.74 -2.52,4.53 -0.22,0.78 -0.36,1.37 -0.42,1.76 -0.06,0.39 -0.2,0.59 -0.42,0.59 -0.34,0 -0.45,-0.73 -0.34,-2.18 0.22,-2.01 1.06,-3.92 2.52,-5.71 2.13,-2.8 5.09,-5.12 8.9,-6.97 3.8,-1.85 8.39,-2.77 13.76,-2.77 3.58,0 6.83,0.39 9.74,1.17 2.91,0.78 5.34,1.96 7.3,3.53 1.96,1.57 3.38,3.47 4.28,5.71 0.9,2.24 1.06,4.81 0.5,7.72 -0.45,2.35 -1.54,4.42 -3.27,6.21 -1.73,1.79 -3.94,3.24 -6.63,4.36 -2.69,1.12 -5.82,1.93 -9.4,2.43 -3.58,0.5 -7.39,0.7 -11.41,0.59 -5.04,0 -9.76,-0.36 -14.18,-1.09 -4.42,-0.73 -9.48,-1.71 -15.19,-2.94 -4.48,-0.9 -8.98,-1.73 -13.51,-2.52 -4.53,-0.78 -9.04,-1.29 -13.51,-1.51 -3.69,-0.22 -7.25,-0.06 -10.66,0.5 -3.41,0.56 -6.46,1.48 -9.15,2.77 -2.69,1.29 -4.87,2.94 -6.55,4.95 -1.68,2.01 -2.69,4.36 -3.02,7.05 -0.22,3.02 0.06,6.18 0.84,9.48 0.78,3.3 2.85,6.41 6.21,9.32 1.57,1.34 3.08,2.55 4.53,3.61 1.45,1.06 2.41,2.38 2.85,3.94 0.67,2.57 -0.06,5.48 -2.18,8.73 -2.13,3.24 -5.15,6.27 -9.06,9.06 -7.27,5.37 -13.48,8.06 -18.63,8.06 -5.48,0 -8.22,-2.07 -8.22,-6.21 0,-4.25 1.57,-8.11 4.7,-11.58l0 -0.17c-2.91,2.91 -4.7,4.36 -5.37,4.36l-0.17 -0.17 0 -0.34 0.17 -0.67c3.58,-3.8 8.39,-7.33 14.43,-10.57 6.15,-3.36 11.53,-5.04 16.11,-5.04 0.45,0 0.78,0.28 1.01,0.84 -0.11,0.11 -0.73,0.45 -1.85,1.01 -1.79,0.9 -3.8,2.24 -6.04,4.03 -2.24,1.79 -4.64,3.97 -7.22,6.55 -5.71,5.93 -8.56,10.57 -8.56,13.93 0,1.57 0.78,2.35 2.35,2.35 4.14,0 9.23,-3.19 15.27,-9.57 3.13,-3.24 5.37,-6.07 6.71,-8.48 1.34,-2.41 2.01,-4.73 2.01,-6.97 0,-1.34 -0.67,-2.55 -2.01,-3.61 -1.34,-1.06 -2.8,-2.46 -4.36,-4.2 -1.57,-1.73 -2.94,-4 -4.11,-6.8 -1.17,-2.8 -1.59,-6.6 -1.26,-11.41zm69.15 34.58c0,1.12 -3.86,4.81 -11.58,11.02 -5.59,4.5 -10.41,6.77 -14.44,6.77 -3.24,0 -4.87,-1.37 -4.87,-4.11 0,-2.04 0.78,-3.92 2.35,-5.62l-0.17 0c-7.05,6.49 -13.37,9.73 -18.97,9.73 -4.25,0 -6.38,-1.87 -6.38,-5.59 0,-3.27 1.57,-6.74 4.7,-10.35l-0.17 0c-1.68,1.79 -2.74,2.69 -3.19,2.69 -0.22,0 -0.39,-0.06 -0.5,-0.17l0 -0.34c0,0 0.06,-0.22 0.17,-0.67 2.8,-3.36 7.47,-6.8 14.02,-10.32 6.55,-3.52 11.78,-5.29 15.69,-5.29 3.92,0 5.87,1.45 5.87,4.36 0,0.67 -0.11,1.4 -0.34,2.18l0.17 0c3.8,-4.36 7.27,-6.55 10.41,-6.55 1.45,0 2.18,0.17 2.18,0.5 0,0.34 -2.85,3.97 -8.56,10.91 -5.71,6.91 -8.56,11.5 -8.56,13.76l0.34 0.84c0.34,0.11 0.73,0.17 1.17,0.17 2.35,0 6.24,-2.32 11.67,-6.97 5.43,-4.64 8.36,-7.02 8.81,-7.13 0.11,0.11 0.17,0.17 0.17,0.17zm-18.97 -7.22c0,-2.01 -1.06,-3.02 -3.19,-3.02 -2.91,0 -7.75,3.24 -14.52,9.73 -6.77,6.49 -10.15,11.08 -10.15,13.76 0,1.34 0.73,2.01 2.18,2.01 3.24,0 8.34,-3.02 15.27,-9.06 6.94,-6.04 10.41,-10.52 10.41,-13.43zm73.68 7.22c-0.22,1.71 -4.08,5.37 -11.58,11.02 -5.93,4.5 -10.97,6.77 -15.11,6.77 -3.69,0 -5.54,-1.31 -5.54,-3.92 0,-2.94 2.55,-7.19 7.64,-12.73 5.09,-5.57 7.64,-8.73 7.64,-9.54 0,-0.56 -0.45,-0.84 -1.34,-0.84 -5.82,0 -17.12,10.43 -33.9,31.28 -6.71,8.31 -17.4,22.63 -32.06,43.05 -2.13,3.13 -4.25,6.27 -6.38,9.4 -3.02,4.17 -5.32,6.88 -6.88,8.17 -1.57,1.29 -2.91,1.93 -4.03,1.93 -2.57,0 -3.86,-1.4 -3.86,-4.2 0,-2.8 1.85,-6.91 5.54,-12.39 22.16,-32.28 42.07,-59.03 59.75,-80.26l-0.17 -0.17c-11.86,11.08 -18.3,16.62 -19.3,16.62l0 0c0.56,-1.34 10.24,-10.52 29.04,-27.53 2.46,-2.24 4.64,-3.36 6.55,-3.36 1.68,0 2.52,0.22 2.52,0.67 0,0.22 -0.9,1.4 -2.69,3.53 -6.15,7.16 -16.45,20.25 -30.88,39.28 -13.2,17.23 -24.11,32.17 -32.73,44.81 -7.16,10.41 -10.74,16.22 -10.74,17.46l0 0.5c0.11,0.11 0.22,0.17 0.34,0.17 1.23,0 7.44,-7.97 18.63,-23.89 14.1,-20.06 25.29,-34.8 33.57,-44.2 13.76,-15.92 24.34,-23.89 31.72,-23.89 3.47,0 5.2,1.15 5.2,3.41 0,2.27 -2.32,5.96 -6.96,11.13 -4.64,5.15 -6.97,8.53 -6.97,10.1 0,1.03 0.56,1.54 1.68,1.54 2.46,0 6.49,-2.29 12.08,-6.88 5.59,-4.59 8.67,-6.94 9.23,-7.05zm56.06 5.71l-0.34 0.84 -0.67 -0.5c-1.12,-1.79 -3.36,-2.69 -6.71,-2.69 -1.45,0 -3.55,0.25 -6.29,0.76 -2.74,0.5 -4.84,0.76 -6.29,0.76 -3.69,0 -5.71,-0.9 -6.04,-2.69l0.17 -0.5 0.34 0c1.12,0.56 2.13,0.84 3.02,0.84 1.9,0 4.48,-0.92 7.72,-2.77 3.25,-1.85 5.82,-2.77 7.72,-2.77 5.04,0 7.5,2.91 7.39,8.73zm537.77 -132.43c0,12.76 -8.9,22.66 -26.69,29.71 -13.54,5.37 -27.86,8.06 -42.97,8.06 -12.64,0 -30.27,-1.96 -52.87,-5.87 -17.46,13.85 -33.85,29.34 -49.18,46.44 -21.6,24 -32.39,42.72 -32.39,56.14 0,4.36 1.29,7.97 3.86,10.88 2.57,2.91 6.04,4.36 10.41,4.36 6.27,0 11.92,-1.57 16.95,-4.67 6.83,-4.25 12.76,-9.43 17.79,-15.58 6.04,-7.47 9.06,-14.55 9.06,-21.23 0,-6.24 -3.19,-9.37 -9.57,-9.37 -6.27,0 -12.92,3.64 -19.97,10.91 -6.38,6.6 -9.57,13.26 -9.57,19.97 0,1.45 -0.34,2.18 -1.01,2.18 -0.34,0 -0.5,-1.06 -0.5,-3.19 0,-7.16 3.24,-14.21 9.73,-21.15 6.49,-6.94 13.26,-10.41 20.31,-10.41 8.95,0 13.43,4.36 13.43,13.09 0,10.85 -5.15,20.59 -15.44,29.21 -9.85,8.17 -20.31,12.25 -31.39,12.25 -6.15,0 -11.02,-1.68 -14.6,-5.04 -3.58,-3.36 -5.37,-8.06 -5.37,-14.1 0,-24.62 25.68,-58.91 77.04,-102.89 -5.15,-1.12 -9.06,-1.9 -11.75,-2.35 -19.81,16.34 -41.74,37.04 -65.8,62.1 -20.48,22.16 -41.01,44.26 -61.6,66.3 -3.13,3.36 -5.71,5.04 -7.72,5.04 -2.69,0 -4.03,-1.51 -4.03,-4.53 0,-4.59 4.48,-13.6 13.43,-27.02 21.15,-31.78 53.04,-67.81 95.67,-108.09 -4.92,-0.78 -8.67,-1.45 -11.25,-2.01 -14.32,12.98 -27.97,25.85 -40.95,38.6 -23.39,23.05 -40.39,39.11 -51.03,48.17 -20.25,17.46 -39.5,30.6 -57.74,39.44 -22.38,10.74 -44.93,16.11 -67.64,16.11 -21.48,0 -39.16,-3.69 -53.04,-11.08 -17.57,-9.51 -26.35,-24.11 -26.35,-43.81 0,-18.91 9.01,-35.47 27.02,-49.68 21.04,-16.56 46.77,-25.62 77.21,-27.19 6.6,-10.41 17.96,-18.07 34.07,-22.99 12.53,-3.8 26.52,-5.71 41.96,-5.71 24.62,0 63.05,5.26 115.31,15.78 27.86,-24.95 44.76,-37.43 50.69,-37.43 3.47,0 5.2,1.4 5.2,4.2 0,3.13 -4.64,9.62 -13.93,19.47 -6.27,6.15 -12.48,12.31 -18.63,18.46l18.3 3.53c16.22,-13.09 32.73,-24.62 49.51,-34.58 23.39,-13.88 41.46,-20.81 54.21,-20.81 9.73,0 15.89,3.24 18.46,9.73 6.6,0.45 11.97,2.35 16.11,5.71 4.81,3.69 7.22,8.67 7.22,14.94zm-2.18 0c0,-6.49 -2.63,-11.36 -7.89,-14.6 -4.5,-2.8 -10.15,-4.2 -16.98,-4.2 -15.36,0 -32.06,5.37 -50.1,16.11 -10.63,6.27 -25.04,16.9 -43.19,31.89 20.51,3.13 38.55,4.7 54.13,4.7 14.21,0 27.44,-2.29 39.67,-6.88 16.25,-6.27 24.37,-15.27 24.37,-27.02zm-22.99 -20.81c-2.35,-4.48 -8.22,-6.71 -17.62,-6.71 -12.42,0 -29.82,6.6 -52.2,19.81 -16.11,9.51 -31.95,20.59 -47.5,33.23 2.57,0.45 6.43,1.06 11.58,1.85 18.13,-14.66 34.46,-25.74 49.01,-33.23 19.69,-9.96 38.6,-14.94 56.73,-14.94zm-109.1 3.52c0,-1.01 -0.56,-1.51 -1.68,-1.51 -5.37,0 -21.43,12.08 -48.17,36.25 7.72,1.45 11.47,2.18 11.25,2.18 6.38,-5.68 12.81,-11.3 19.3,-16.87 9.96,-9.15 16.39,-15.83 19.3,-20.06zm-13.29 44.31c-11.97,-2.43 -17.93,-3.64 -17.93,-3.64 -45.88,44.28 -80.85,83.28 -104.9,116.93 -6.6,9.29 -9.96,15.16 -10.07,17.62l0.5 0.84c1.23,0.34 3.47,-1.23 6.71,-4.7 8.62,-9.6 21.71,-23.97 39.28,-43.08 18.46,-19.67 32.37,-34.16 41.77,-43.42 15.78,-15.78 30.66,-29.29 44.65,-40.56zm-41.26 -8.73c-43.75,-8.39 -80.4,-12.59 -109.94,-12.59 -37.82,0 -63.28,7.94 -76.37,23.83l1.85 0c17.23,-0.11 32.23,2.74 44.98,8.56 16.67,7.61 25.01,19.02 25.01,34.24 0,15.22 -9.01,28.31 -27.02,39.28 -17.12,10.41 -36.03,15.61 -56.73,15.61 -10.74,0 -20.65,-2.13 -29.71,-6.38 -11.53,-5.37 -17.29,-12.76 -17.29,-22.16 0,-1.12 0.2,-2.66 0.59,-4.62 0.39,-1.96 0.92,-2.77 1.59,-2.43l0.17 0.5c-0.56,3.8 -0.84,5.48 -0.84,5.04 0,9.4 5.26,16.34 15.78,20.81 7.72,3.24 17.01,4.87 27.86,4.87 12.64,0 25.23,-2.07 37.77,-6.21 13.65,-4.48 24.76,-10.71 33.32,-18.71 8.56,-8 12.84,-16.48 12.84,-25.43 0,-13.99 -7.44,-24.11 -22.32,-30.38 -10.52,-4.36 -24,-6.55 -40.45,-6.55 -3.47,0 -6.99,0.11 -10.57,0.34 -2.35,4.7 -3.53,9.9 -3.53,15.61 0,9.4 3.64,17.01 10.91,22.83 6.83,5.37 15.05,8.06 24.67,8.06 0.9,0 2.18,-0.25 3.86,-0.76 1.68,-0.5 2.91,-0.76 3.69,-0.76l0.34 0.17c-3.58,1.9 -6.55,2.85 -8.9,2.85 -10.29,0 -18.85,-3.08 -25.68,-9.23 -7.16,-6.38 -10.74,-14.6 -10.74,-24.67 0,-5.04 0.9,-9.62 2.69,-13.76 -28.09,1.45 -52.42,9.79 -73.01,25.01 -18.02,13.32 -27.02,28.42 -27.02,45.32 0,17.9 8.73,31.05 26.18,39.44 13.2,6.38 29.82,9.57 49.85,9.57 29.43,0 57.68,-7.66 84.76,-22.99 20.81,-11.75 43.97,-30.1 69.49,-55.05 25.51,-24.95 46.16,-44.7 61.93,-59.25zm99.03 108.43c0,1.12 -3.86,4.81 -11.58,11.02 -5.59,4.5 -10.41,6.77 -14.44,6.77 -3.24,0 -4.87,-1.37 -4.87,-4.11 0,-2.04 0.78,-3.92 2.35,-5.62l-0.17 0c-7.05,6.49 -13.37,9.73 -18.97,9.73 -4.25,0 -6.38,-1.87 -6.38,-5.59 0,-3.27 1.57,-6.74 4.7,-10.35l-0.17 0c-1.68,1.79 -2.74,2.69 -3.19,2.69 -0.22,0 -0.39,-0.06 -0.5,-0.17l0 -0.34c0,0 0.06,-0.22 0.17,-0.67 2.8,-3.36 7.47,-6.8 14.02,-10.32 6.55,-3.52 11.78,-5.29 15.69,-5.29 3.92,0 5.87,1.45 5.87,4.36 0,0.67 -0.11,1.4 -0.34,2.18l0.17 0c3.8,-4.36 7.27,-6.55 10.41,-6.55 1.45,0 2.18,0.17 2.18,0.5 0,0.34 -2.85,3.97 -8.56,10.91 -5.71,6.91 -8.56,11.5 -8.56,13.76l0.34 0.84c0.34,0.11 0.73,0.17 1.17,0.17 2.35,0 6.24,-2.32 11.67,-6.97 5.43,-4.64 8.36,-7.02 8.81,-7.13 0.11,0.11 0.17,0.17 0.17,0.17zm-18.97 -7.22c0,-2.01 -1.06,-3.02 -3.19,-3.02 -2.91,0 -7.75,3.24 -14.52,9.73 -6.77,6.49 -10.15,11.08 -10.15,13.76 0,1.34 0.73,2.01 2.18,2.01 3.24,0 8.34,-3.02 15.27,-9.06 6.94,-6.04 10.41,-10.52 10.41,-13.43zm73.68 7.22c-0.22,1.71 -4.08,5.37 -11.58,11.02 -5.93,4.5 -10.97,6.77 -15.11,6.77 -3.69,0 -5.54,-1.31 -5.54,-3.92 0,-2.94 2.55,-7.19 7.64,-12.73 5.09,-5.57 7.64,-8.73 7.64,-9.54 0,-0.56 -0.45,-0.84 -1.34,-0.84 -5.82,0 -17.12,10.43 -33.9,31.28 -6.71,8.31 -17.4,22.63 -32.06,43.05 -2.13,3.13 -4.25,6.27 -6.38,9.4 -3.02,4.17 -5.32,6.88 -6.88,8.17 -1.57,1.29 -2.91,1.93 -4.03,1.93 -2.57,0 -3.86,-1.4 -3.86,-4.2 0,-2.8 1.85,-6.91 5.54,-12.39 22.16,-32.28 42.07,-59.03 59.75,-80.26l-0.17 -0.17c-11.86,11.08 -18.3,16.62 -19.3,16.62l0 0c0.56,-1.34 10.24,-10.52 29.04,-27.53 2.46,-2.24 4.64,-3.36 6.55,-3.36 1.68,0 2.52,0.22 2.52,0.67 0,0.22 -0.9,1.4 -2.69,3.53 -6.15,7.16 -16.45,20.25 -30.88,39.28 -13.2,17.23 -24.11,32.17 -32.73,44.81 -7.16,10.41 -10.74,16.22 -10.74,17.46l0 0.5c0.11,0.11 0.22,0.17 0.34,0.17 1.23,0 7.44,-7.97 18.63,-23.89 14.1,-20.06 25.29,-34.8 33.57,-44.2 13.76,-15.92 24.34,-23.89 31.72,-23.89 3.47,0 5.2,1.15 5.2,3.41 0,2.27 -2.32,5.96 -6.97,11.13 -4.64,5.15 -6.97,8.53 -6.97,10.1 0,1.03 0.56,1.54 1.68,1.54 2.46,0 6.49,-2.29 12.09,-6.88 5.59,-4.59 8.67,-6.94 9.23,-7.05zm48.34 0c0,1.12 -3.86,4.81 -11.58,11.02 -5.59,4.5 -10.41,6.77 -14.44,6.77 -3.24,0 -4.87,-1.37 -4.87,-4.11 0,-2.04 0.78,-3.92 2.35,-5.62l-0.17 0c-7.05,6.49 -13.37,9.73 -18.97,9.73 -4.25,0 -6.38,-1.87 -6.38,-5.59 0,-3.27 1.57,-6.74 4.7,-10.35l-0.17 0c-1.68,1.79 -2.74,2.69 -3.19,2.69 -0.22,0 -0.39,-0.06 -0.5,-0.17l0 -0.34c0,0 0.06,-0.22 0.17,-0.67 2.8,-3.36 7.47,-6.8 14.02,-10.32 6.55,-3.52 11.78,-5.29 15.69,-5.29 3.92,0 5.87,1.45 5.87,4.36 0,0.67 -0.11,1.4 -0.34,2.18l0.17 0c3.8,-4.36 7.27,-6.55 10.41,-6.55 1.45,0 2.18,0.17 2.18,0.5 0,0.34 -2.85,3.97 -8.56,10.91 -5.71,6.91 -8.56,11.5 -8.56,13.76l0.34 0.84c0.34,0.11 0.73,0.17 1.17,0.17 2.35,0 6.24,-2.32 11.67,-6.97 5.43,-4.64 8.36,-7.02 8.81,-7.13 0.11,0.11 0.17,0.17 0.17,0.17zm-18.97 -7.22c0,-2.01 -1.06,-3.02 -3.19,-3.02 -2.91,0 -7.75,3.24 -14.52,9.73 -6.77,6.49 -10.15,11.08 -10.15,13.76 0,1.34 0.73,2.01 2.18,2.01 3.24,0 8.34,-3.02 15.27,-9.06 6.94,-6.04 10.41,-10.52 10.41,-13.43z"></path> <path class="fil0" d="M1117.85 433.09c-0.34,1.57 -3.97,5.04 -10.91,10.41 -5.59,4.36 -10.29,6.55 -14.1,6.55 -3.13,0 -4.7,-1.4 -4.7,-4.2 0,-2.01 1.96,-5.65 5.87,-10.91 -5.59,5.04 -9.34,8.22 -11.24,9.57 -5.04,3.69 -9.23,5.54 -12.59,5.54 -3.24,0 -4.87,-1.29 -4.87,-3.86 0,-0.67 0.06,-1.34 0.17,-2.01l0.17 0c0.9,-2.91 2.91,-4.36 6.04,-4.36 1.9,0 2.85,0.56 2.85,1.68 0,0.34 -0.11,0.9 -0.34,1.68 -0.22,0.78 -0.34,1.4 -0.34,1.85 0,0.11 0.11,0.5 0.34,1.18 0.34,0.11 0.67,0.17 1.01,0.17 2.13,0 7.44,-3.58 15.94,-10.74 5.26,-4.59 10.57,-9.18 15.95,-13.76 0.9,-0.67 2.69,-1.01 5.37,-1.01 0.9,0 1.34,0.22 1.34,0.67 0,0.22 -2.85,3.75 -8.56,10.57 -5.71,6.83 -8.56,11.13 -8.56,12.92 0.34,1.01 0.73,1.51 1.17,1.51 1.9,0 5.32,-2.15 10.24,-6.46 4.92,-4.31 8.17,-6.63 9.74,-6.97z"></path> </g> <g id="_2118657245184"> <path class="fil1" d="M420.99 168.29l-3.33 7.57c-3.75,-3.5 -6.21,-8.09 -6.21,-13.66 0,-6 2.21,-12.87 6.64,-20.57 0.79,-1.37 4.76,-7.49 11.92,-18.36 4.3,-6.46 6.48,-11.22 6.48,-14.28 0,-1.82 -0.52,-3.68 -1.53,-5.61 -2.63,0.56 -5.84,0.85 -9.62,0.85 -6.87,0 -10.31,-1.59 -10.31,-4.76 0,-2.94 2.55,-4.43 7.66,-4.43 5.48,0 10.31,1.86 14.51,5.61 6.48,-2.5 13.16,-7.76 20.12,-15.81 5.9,-6.91 16.23,-19.72 31,-38.43 10.43,-13.27 19.43,-23.18 26.92,-29.76 12.48,-11.11 24.09,-16.66 34.75,-16.66 4.43,0 8.59,1.08 12.46,3.23 4.66,2.5 6.97,5.77 6.97,9.87 0,1.7 -0.29,2.55 -0.85,2.55 -1.59,-9.06 -7.89,-13.6 -18.89,-13.6 -9.42,0 -19,5.55 -28.77,16.64 -12.71,15.87 -25.37,31.66 -37.96,47.41 -17.47,20.61 -32.22,32.8 -44.27,36.53 2.61,3.25 3.91,6.95 3.91,11.03 0,5.67 -3.73,14.22 -11.15,25.64 -7.43,11.44 -11.15,20.47 -11.15,27.01 0,0.68 0.64,1.37 0.68,2.01l0.02 -0.02zm51.9 -151.66c0,1.59 -1.92,3.35 -5.79,5.28 -2.61,1.14 -5.13,2.36 -7.57,3.66 -2.44,1.3 -7.68,7.84 -15.75,19.64 -6.25,9.29 -12.54,18.65 -18.89,28.06 -7.37,10.89 -13.95,20.01 -19.74,27.38 -23.84,30.73 -47.56,53.23 -71.15,67.51 -27.57,16.78 -58.9,25.17 -93.96,25.17 -22.12,0 -41.14,-4.66 -57.02,-13.95 -19.06,-11.22 -28.6,-27.21 -28.6,-47.95 0,-19.95 10.1,-37.19 30.3,-51.7 21.21,-15.19 45.51,-22.79 72.85,-22.79l2.38 0c0.23,-13.27 6.52,-24.65 18.89,-34.19 13.62,-10.53 32.35,-15.81 56.17,-15.81 13.62,0 26.1,2.55 37.46,7.66 14.53,6.46 21.79,15.65 21.79,27.55 0,1.7 -0.33,2.38 -1.01,2.05l-0.52 -0.68c0,-11.51 -7.14,-20.01 -21.44,-25.54 -10.55,-4.16 -22.7,-6.27 -36.42,-6.27 -18.38,0 -34.11,3 -47.14,8.98 -17.36,7.93 -26.03,20.03 -26.03,36.34 15.89,0.46 30.24,3.21 43.07,8.3 16.78,6.68 26.68,16.25 29.62,28.68 31.54,-2.84 61.61,-17.24 90.21,-43.19 9.09,-8.28 13.95,-12.65 14.63,-13.1 7.26,-6.35 12.42,-10.04 15.5,-11.05 8.05,-7.26 13.72,-10.89 17.01,-10.89 0.79,0 1.2,0.29 1.2,0.85l-0.02 0zm-39.15 85.04l0 -0.17c-2.5,-2.94 -6.02,-4.43 -10.55,-4.43 -3.97,0 -5.96,0.79 -5.96,2.38 0,2.05 2.84,3.06 8.51,3.06 3.29,0 5.96,-0.29 8.01,-0.85zm-101.8 -7.49c-2.96,-10.89 -12.71,-19 -29.28,-24.32 -11.57,-3.62 -24.92,-5.67 -40,-6.13l-0.17 0.17c3.06,11.57 12.71,19.89 28.93,25 11.34,3.52 24.86,5.28 40.52,5.28zm120.18 -64.44l0 -0.17c-1.47,0.56 -3.81,2.21 -6.97,4.93 -6.58,6 -13.1,12.02 -19.58,18.03 -7.82,7.14 -14.69,12.71 -20.59,16.66 -25.31,17.11 -48.67,26.82 -70.14,29.08 0,18.03 -9.42,32.43 -28.25,43.19 -15.89,9.19 -33.59,13.78 -53.1,13.78 -11.34,0 -21.67,-1.92 -30.98,-5.77 -12.25,-4.99 -18.38,-12.35 -18.38,-22.1 0,-3.62 0.46,-5.38 1.39,-5.28 0.08,0.1 0.14,0.23 0.14,0.33 0,0.33 0,0.91 0,1.7 0,0.79 0,1.37 0,1.7 0,9.42 5.38,16.2 16.16,20.41 7.59,3.06 16.97,4.59 28.08,4.59 17.92,0 35.24,-3.97 51.92,-11.9 20.53,-9.75 30.82,-22.56 30.82,-38.43 0,-0.68 -0.06,-1.3 -0.17,-1.86 -0.68,0 -1.76,0.06 -3.23,0.17 -1.47,0 -2.61,0 -3.41,0 -14.4,0 -27.52,-2.5 -39.32,-7.49 -14.86,-6.35 -23.61,-15.52 -26.22,-27.55l-3.75 0c-16.45,0 -32.28,2.77 -47.5,8.34 -17.14,6.13 -30.46,14.8 -40,26.01 -8.86,10.43 -13.29,21.61 -13.29,33.51 0,19.62 9.48,34.85 28.44,45.74 15.77,9.06 34.27,13.6 55.48,13.6 31.77,0 60.89,-8.61 87.31,-25.85 21.44,-13.95 43.46,-35.43 66.04,-64.44 9.42,-12.13 18.83,-24.32 28.25,-36.57 11.11,-13.82 21.4,-25.29 30.82,-34.35l0.02 0.02z"></path> <g> <path class="fil0" d="M527.49 160.51c0,0.33 -0.56,1.01 -1.7,2.05 -8.73,8.28 -15.67,15.42 -20.76,21.42 -9.42,10.99 -19.81,24.65 -31.15,40.98 -3.75,5.44 -6.06,8.73 -6.97,9.87 -3.19,4.3 -5.65,7.22 -7.41,8.75 -1.76,1.53 -3.44,2.3 -5.03,2.3 -2.15,0 -3.23,-1.24 -3.23,-3.75 0,-4.2 7.37,-16.43 22.12,-36.73l34.04 -46.94 -0.52 -0.17c-16.58,13.27 -27.24,19.89 -31.99,19.89 -2.96,0 -4.43,-1.37 -4.43,-4.08 0,-5.11 4.95,-12.25 14.82,-21.42l0 -0.17c-1.82,1.24 -4.53,3.29 -8.17,6.13 -1.37,1.24 -3.41,3 -6.13,5.28 -0.68,0.46 -1.24,0.68 -1.7,0.68l-0.17 -0.33c0,-1.2 4.26,-5.11 12.77,-11.75 4.08,-3.15 8.17,-4.74 12.25,-4.74 0.79,0 1.47,0.17 2.05,0.52l0 0.37c0,0.1 -2.84,3.81 -8.51,11.07 -5.67,7.28 -8.51,11.73 -8.51,13.35 0,0.7 0.33,1.06 1.01,1.06 2.38,0 8.11,-3.54 17.2,-10.6 5.79,-4.55 11.53,-9.19 17.2,-13.89 1.59,-1.24 3.23,-1.86 4.95,-1.86 2.28,0 3.41,0.29 3.41,0.85 0,0 -10.76,14.57 -32.26,43.71 -21.5,29.14 -32.26,45.12 -32.26,47.95 0,0.1 0.06,0.25 0.17,0.43 0.1,0.17 0.23,0.25 0.33,0.25 0.91,0 2.32,-1.3 4.26,-3.91 9.54,-13.27 19.12,-26.53 28.77,-39.8 11.47,-15.09 22.52,-27.09 33.2,-36.05 0.91,-0.79 1.53,-1.2 1.86,-1.2 0.33,0 0.52,0.17 0.52,0.52l-0.04 -0.04z"></path> <path class="fil0" d="M582.81 160.18c-0.23,1.74 -4.14,5.44 -11.75,11.18 -6.02,4.57 -11.11,6.85 -15.31,6.85 -3.75,0 -5.61,-1.32 -5.61,-3.97 0,-2.98 2.59,-7.28 7.74,-12.89 5.15,-5.65 7.74,-8.84 7.74,-9.66 0,-0.56 -0.46,-0.85 -1.37,-0.85 -5.9,0 -17.36,10.58 -34.37,31.68 -6.81,8.42 -17.65,22.93 -32.51,43.63 -2.15,3.17 -4.3,6.35 -6.48,9.52 -3.06,4.22 -5.38,6.97 -6.97,8.28 -1.59,1.3 -2.96,1.95 -4.08,1.95 -2.61,0 -3.91,-1.41 -3.91,-4.24 0,-2.84 1.86,-7 5.61,-12.56 22.48,-32.7 42.67,-59.81 60.6,-81.31l-0.17 -0.17c-12.02,11.22 -18.56,16.85 -19.58,16.85l0 0c0.56,-1.37 10.39,-10.66 29.45,-27.9 2.5,-2.28 4.72,-3.39 6.64,-3.39 1.7,0 2.55,0.23 2.55,0.68 0,0.23 -0.91,1.41 -2.73,3.58 -6.25,7.26 -16.68,20.53 -31.31,39.8 -13.39,17.47 -24.46,32.59 -33.2,45.41 -7.26,10.53 -10.89,16.43 -10.89,17.69l0 0.52c0.1,0.1 0.23,0.17 0.33,0.17 1.24,0 7.55,-8.07 18.89,-24.21 14.3,-20.32 25.64,-35.26 34.04,-44.78 13.95,-16.12 24.69,-24.21 32.18,-24.21 3.52,0 5.28,1.16 5.28,3.46 0,2.3 -2.36,6.04 -7.06,11.28 -4.72,5.21 -7.06,8.65 -7.06,10.22 0,1.06 0.56,1.55 1.7,1.55 2.5,0 6.58,-2.32 12.25,-6.97 5.67,-4.66 8.8,-7.04 9.35,-7.14l0 -0z"></path> <path class="fil0" d="M657.02 160.35c0,1.37 -3.91,4.99 -11.75,10.89 -6.02,4.53 -10.89,6.81 -14.63,6.81 -3.52,0 -5.28,-1.37 -5.28,-4.08 0,-3.39 3.13,-8.22 9.35,-14.45l-0.33 -0.33c-14.18,12.35 -23.94,18.54 -29.28,18.54 -3.19,0 -4.76,-1.41 -4.76,-4.24 0,-1.59 0.75,-3.46 2.21,-5.61 1.24,-1.82 2.5,-3.62 3.75,-5.44 -3.75,3.17 -7.55,6.42 -11.4,9.69 -4.99,3.75 -9.25,5.61 -12.77,5.61 -3.29,0 -4.95,-1.3 -4.95,-3.91 0,-0.68 0.06,-1.37 0.17,-2.05l0.17 0c0.91,-2.94 2.96,-4.43 6.13,-4.43 1.92,0 2.9,0.56 2.9,1.7 0,0.33 -0.1,0.91 -0.33,1.7 -0.23,0.79 -0.33,1.41 -0.33,1.86 0,0.1 0.1,0.52 0.33,1.2 0.23,0.1 0.56,0.17 1.01,0.17 2.05,0 7.72,-3.91 17.03,-11.73 5.11,-4.3 10.16,-8.67 15.15,-13.1 0.79,-0.68 2.61,-1.01 5.44,-1.01 0.56,0 1.01,0.17 1.37,0.52 -0.1,0.68 -3,4.37 -8.67,11.05 -5.67,6.68 -8.51,10.99 -8.51,12.93 0.33,1.01 0.75,1.53 1.2,1.53 2.28,0 8.17,-3.91 17.69,-11.73 11.57,-9.52 17.65,-14.45 18.21,-14.8 0.56,-0.33 1.53,-0.52 2.9,-0.52 2.38,0 3.58,0.29 3.58,0.85 0,0.33 -3,4.06 -9.02,11.13 -6.02,7.08 -9.02,11.59 -9.02,13.51 0,0.46 0.1,0.83 0.33,1.1 0.23,0.29 0.56,0.43 1.01,0.43 1.92,0 5.28,-1.82 10.04,-5.44 3.52,-2.71 6.42,-5.21 8.69,-7.49l2.21 -1.01c0.12,0.1 0.17,0.17 0.17,0.17l0 -0z"></path> <path class="fil0" d="M693.44 160.35c0,0.33 -0.52,1.01 -1.53,2.05 -4.2,4.3 -8.86,7.93 -13.95,10.89 -6.02,3.52 -11.57,5.28 -16.68,5.28 -6.25,0 -9.35,-2.09 -9.35,-6.29 0,-3.06 1.37,-6.42 4.08,-10.04l-0.21 0c-1.74,1.7 -2.9,2.55 -3.52,2.55 -0.1,0 -0.25,-0.06 -0.37,-0.17l0 -0.33c0,0 0.06,-0.23 0.17,-0.68 3.21,-3.58 7.91,-7.06 14.09,-10.49 6.64,-3.54 12.09,-5.32 16.31,-5.32 3.31,0 4.99,1.47 4.99,4.45 0,5.13 -8.57,10.43 -25.7,15.89 -0.68,2.3 -1.01,3.83 -1.01,4.62 0,2.07 1.3,3.08 3.91,3.08 3.52,0 7.66,-1.37 12.42,-4.08 3.29,-1.92 6.87,-4.47 10.72,-7.66 3.29,-2.84 4.99,-4.24 5.11,-4.24 0.33,0 0.52,0.17 0.52,0.52l0.02 -0.02zm-11.92 -8.98c0,-1.06 -0.68,-1.55 -2.05,-1.55 -2.28,0 -5.38,2.21 -9.35,6.6 -3.06,3.35 -5.51,6.66 -7.33,9.89l0 0.17c12.48,-4.06 18.73,-9.11 18.73,-15.11z"></path> <path class="fil0" d="M780.26 160.35c0,1.39 -3.91,5.05 -11.75,10.99 -6.13,4.57 -11.24,6.85 -15.31,6.85 -3.29,0 -4.95,-1.32 -4.95,-3.97 0,-2.63 2.5,-6.95 7.49,-12.89 4.99,-5.98 7.49,-9.23 7.49,-9.83 0,-0.56 -0.39,-0.85 -1.2,-0.85 -3.39,0 -10.43,4.59 -21.11,13.78 -10.66,9.19 -17.14,13.78 -19.41,13.78 -1.82,0 -2.73,-0.33 -2.73,-1.06 0,-2.32 2.86,-7.06 8.59,-14.2 5.73,-7.14 8.59,-10.91 8.59,-11.26 0,-0.7 -0.46,-1.06 -1.37,-1.06 -3.06,0 -10.1,4.59 -21.11,13.78 -11.01,9.19 -17.43,13.78 -19.23,13.78 -1.92,0 -2.9,-0.33 -2.9,-1.06 0,-1.61 2.73,-6.08 8.17,-13.43 5.44,-7.35 8.24,-11.05 8.34,-11.18 -0.23,-0.7 -0.56,-1.06 -1.01,-1.06 -1.92,0 -5.38,2.21 -10.39,6.62 -4.99,4.43 -7.55,6.62 -7.66,6.62 -0.46,0 -0.68,-0.23 -0.68,-0.68 0,-0.68 3.68,-4.2 11.07,-10.49 4.53,-3.89 8.51,-5.84 11.92,-5.84 2.84,0 4.26,1.3 4.26,3.93 0,1.95 -3.62,7.66 -10.89,17.16l0.52 0.17c16.68,-14.18 27.69,-21.25 33.03,-21.25 3.62,0 5.44,1.3 5.44,3.93 0,1.95 -1.53,4.84 -4.59,8.75 -2.38,2.71 -4.76,5.53 -7.14,8.38l0.52 0.17c16.68,-14.18 27.75,-21.25 33.2,-21.25 3.52,0 5.28,1.24 5.28,3.77 0,1.92 -2.21,5.67 -6.64,11.2 -4.43,5.55 -6.64,9.04 -6.64,10.53l0.17 0.68c0.33,0.1 0.75,0.17 1.2,0.17 2.38,0 6.02,-1.99 10.89,-5.96 6.13,-4.88 9.64,-7.53 10.55,-7.99l0 0.17 -0 0.08z"></path> <path class="fil0" d="M840.34 160.35c0,0.46 -1.82,2.24 -5.44,5.32 -3.06,2.75 -5.28,4.62 -6.64,5.67 -6.13,4.57 -11.24,6.85 -15.31,6.85 -3.41,0 -5.11,-1.16 -5.11,-3.46 0,-2.98 2.52,-7.45 7.57,-13.41 5.05,-5.98 7.57,-9.23 7.57,-9.83 0,-0.56 -0.39,-0.85 -1.2,-0.85 -3.41,0 -10.53,4.59 -21.36,13.78 -10.84,9.19 -17.22,13.78 -19.14,13.78 -1.92,0 -2.9,-0.33 -2.9,-1.06 0,-1.61 2.73,-6.13 8.17,-13.51 5.44,-7.39 8.24,-11.13 8.34,-11.26 -0.23,-0.7 -0.56,-1.06 -1.01,-1.06 -1.92,0 -5.38,2.24 -10.39,6.73 -4.99,4.47 -7.55,6.73 -7.66,6.73 -0.46,0 -0.68,-0.23 -0.68,-0.68 0,-1.28 3.15,-4.3 9.44,-9.11 6.29,-4.82 10.8,-7.22 13.53,-7.22 2.84,0 4.26,1.3 4.26,3.93 0,1.95 -3.62,7.66 -10.89,17.16l0.52 0.17c16.68,-14.18 27.75,-21.25 33.2,-21.25 3.52,0 5.28,1.24 5.28,3.77 0,2.05 -2.21,5.82 -6.64,11.28 -4.43,5.51 -6.64,8.96 -6.64,10.45l0.17 0.68c0.33,0.1 0.75,0.17 1.2,0.17 2.5,0 6.58,-2.36 12.25,-7.06 5.67,-4.7 8.63,-7.06 8.86,-7.06 0.23,0.1 0.39,0.21 0.52,0.25 0.1,0.06 0.17,0.08 0.17,0.08l-0.02 0.02z"></path> <path class="fil0" d="M876.6 160.35c0,0.33 -0.52,1.01 -1.53,2.05 -4.2,4.3 -8.86,7.93 -13.95,10.89 -6.02,3.52 -11.57,5.28 -16.68,5.28 -6.25,0 -9.35,-2.09 -9.35,-6.29 0,-3.06 1.37,-6.42 4.08,-10.04l-0.21 0c-1.74,1.7 -2.9,2.55 -3.52,2.55 -0.1,0 -0.25,-0.06 -0.37,-0.17l0 -0.33c0,0 0.06,-0.23 0.17,-0.68 3.21,-3.58 7.91,-7.06 14.09,-10.49 6.64,-3.54 12.09,-5.32 16.31,-5.32 3.31,0 4.99,1.47 4.99,4.45 0,5.13 -8.57,10.43 -25.7,15.89 -0.68,2.3 -1.01,3.83 -1.01,4.62 0,2.07 1.3,3.08 3.91,3.08 3.52,0 7.66,-1.37 12.42,-4.08 3.29,-1.92 6.87,-4.47 10.72,-7.66 3.29,-2.84 4.99,-4.24 5.11,-4.24 0.33,0 0.52,0.17 0.52,0.52l0.02 -0.02zm-11.92 -8.98c0,-1.06 -0.68,-1.55 -2.05,-1.55 -2.28,0 -5.38,2.21 -9.35,6.6 -3.06,3.35 -5.51,6.66 -7.33,9.89l0 0.17c12.48,-4.06 18.73,-9.11 18.73,-15.11z"></path> <path class="fil0" d="M929.2 161.36c-2.28,4.88 -6.13,9.02 -11.57,12.42 -4.53,2.94 -8.28,4.43 -11.24,4.43 -3.85,0 -5.79,-1.63 -5.79,-4.93 0,-2.5 1.14,-5.28 3.41,-8.34 -3.52,2.5 -7.26,3.75 -11.24,3.75 -2.96,0 -5.05,-0.97 -6.29,-2.9 -1.59,2.5 -4.2,6 -7.82,10.53 -2.05,0.91 -3.97,1.37 -5.79,1.37 -2.5,0 -3.75,-0.46 -3.75,-1.37 0,-1.59 2.55,-5.51 7.66,-11.73 4.3,-5.44 7.72,-9.35 10.22,-11.73l0 -0.17c-7.49,6.13 -11.69,9.19 -12.6,9.19 -0.23,0 -0.33,-0.1 -0.33,-0.33 1.01,-2.28 4.08,-4.97 9.19,-8.07 5.11,-3.13 8.9,-4.68 11.4,-4.68 2.15,0 3.23,0.29 3.23,0.85 0,0.46 -2.67,4.14 -8.01,11.05 0.91,0.56 1.37,1.3 1.37,2.21 0,0.56 -0.25,1.16 -0.77,1.78 -0.52,0.62 -0.77,1.06 -0.77,1.28 0,1.01 0.75,1.53 2.21,1.53 4.43,0 8.57,-1.59 12.42,-4.76 0.23,-0.1 3.19,-3.13 8.86,-9.02 3.19,-3.29 6.02,-4.93 8.51,-4.93 2.38,0 3.58,0.33 3.58,1.01 0,0.23 -2.59,3.54 -7.74,9.95 -5.15,6.42 -7.74,10.45 -7.74,12.17 0,0.79 0.17,1.39 0.52,1.78 0.33,0.39 0.75,0.6 1.2,0.6 2.05,0 7.59,-4.37 16.68,-13.1l0.52 0c0.23,0 0.39,0.06 0.52,0.17l-0.04 -0.02z"></path> <path class="fil0" d="M940.94 171.23c0,1.47 -2.21,4.16 -6.64,8.07 -4.43,3.91 -7.59,6.27 -9.54,7.06 -0.46,0.1 -1.2,0.39 -2.21,0.85 0.1,-0.56 1.7,-2.55 4.76,-5.96 2.5,-2.84 3.58,-5.55 3.23,-8.15 0.91,-2.38 3.52,-3.58 7.82,-3.58 1.7,0 2.55,0.56 2.55,1.7l0.04 0.02z"></path> <path class="fil0" d="M504.08 195.49l-0.48 0.72 -0.93 -0.43c-1.55,-1.53 -4.68,-2.28 -9.33,-2.28 -2.03,0 -4.95,0.21 -8.75,0.64 -3.81,0.43 -6.73,0.64 -8.75,0.64 -5.13,0 -7.93,-0.77 -8.4,-2.28l0.23 -0.43 0.48 0c1.55,0.48 2.96,0.72 4.2,0.72 2.65,0 6.23,-0.79 10.74,-2.36 4.51,-1.57 8.09,-2.36 10.74,-2.36 7,0 10.43,2.48 10.27,7.43l0 -0.02z"></path> </g> <path class="fil1" d="M420.99 168.29l-3.21 7.39c1.35,0.25 2.79,0.37 4.37,0.37 10.37,0 20.76,-6.15 35.99,-18.46 -11.34,13.6 -21.73,26.57 -32.76,38.87 -15.89,17.18 -31.12,34.66 -56.1,34.66 -10.06,0 -16.2,-5.17 -18.81,-8.09 -1.3,-1.61 -1.95,-3.25 -3.25,-2.92 -1.61,0.64 -0.97,2.59 0.64,4.86 3.56,4.86 9.73,9.73 23.34,10.37 26.26,1.3 52.21,-15.54 70.05,-40.5 6.48,-9.06 21.07,-35.97 28.54,-46.65 4.22,-5.51 6.81,-8.42 11.34,-12.96 1.95,-1.95 3.56,-3.25 3.56,-4.86 0,-0.97 -0.64,-1.61 -1.95,-1.61 -1.61,0 -3.25,1.3 -4.53,2.59 -1.95,1.95 -6.17,7.45 -10.37,13.6 -3.89,3.89 -9.09,8.09 -16.2,13.6 -11.34,8.75 -18.15,12.31 -23.34,12.31 -2.86,0 -6.54,-0.91 -7.31,-2.57l0 -0z"></path> </g> </g> </svg> 