<?xml version="1.0" encoding="UTF-8"?> <svg xmlns="http://www.w3.org/2000/svg" xmlns:xlink="http://www.w3.org/1999/xlink" xmlns:xodm="http://www.corel.com/coreldraw/odm/2003" xml:space="preserve" width="69.5565mm" height="68.7953mm" version="1.1" style="shape-rendering:geometricPrecision; text-rendering:geometricPrecision; image-rendering:optimizeQuality; fill-rule:evenodd; clip-rule:evenodd" viewBox="0 0 1219.79 1206.44"> <defs> <style type="text/css"> .fil0 {fill:white;fill-rule:nonzero} </style> </defs> <g id="Слой_x0020_1"> <metadata id="CorelCorpID_0Corel-Layer"></metadata> <path class="fil0" d="M638.44 1190.46c10.98,-0.28 20.11,-3.63 27.23,-9.9 8.72,-7.65 -1.72,-20.9 -11.32,-12.93 -4.66,3.83 -10.1,5.9 -16.48,6.06 -11.73,0.3 -19.89,-5.44 -23.1,-14.86l48.24 -1.22c5.19,-0.13 7.66,-2.42 8.56,-7.79 1.63,-11.92 -3.6,-24.86 -15.84,-33.02 -6.2,-4.15 -13.22,-6.05 -21.39,-6 -11.14,0.14 -20.24,4.08 -27.62,11.84 -7.38,7.76 -10.84,17.51 -10.55,29.23 0.29,11.43 4.24,20.83 12,28.07 7.61,7.38 17.65,10.84 30.27,10.52zm-3.52 -62.74c10.24,-0.26 17.51,5.35 18.94,14.82l-39.48 1c2.58,-9.42 10,-15.55 20.54,-15.82zm-89.48 2.49l18.05 53.48c3.73,11.85 21.92,6.53 17.25,-6.19l-23.91 -67.4 2.49 -4.32c4.36,-7.23 8.23,-9.43 13.68,-8.74 2.95,0.37 5.34,1.57 7.16,3.75 1.17,1.35 2.72,2.14 4.78,2.4 5.15,0.65 9.49,-2.84 10.11,-7.7 0.37,-2.94 -0.65,-5.47 -3.06,-7.72 -4.8,-4.65 -10.43,-7.46 -16.76,-8.27 -13.7,-1.74 -24.34,4.24 -32.23,18.06l-40.29 70.91c-6.21,11.18 9.87,20.11 15.97,8.61l26.76 -46.89zm-97.74 38.02c10.67,3.18 20.58,1.99 29.94,-3.23 9.35,-5.22 15.52,-13.34 18.73,-24.63 3.12,-11 2.15,-21.15 -2.93,-30.47 -5.26,-9.21 -13.81,-15.5 -25.95,-18.94 -10.57,-3 -20.28,-2.52 -28.94,1.35 -10.6,4.71 -4.58,20.46 6.96,15.71 5.58,-2.27 11.4,-2.63 17.54,-0.89 11.28,3.21 17.37,11.11 17.63,21.06l-46.42 -13.18c-5,-1.42 -8.04,0.03 -10.5,4.89 -5.1,10.9 -3.96,24.81 5.3,36.23 4.68,5.8 10.82,9.71 18.64,12.09zm4.48 -16.32c-9.86,-2.8 -15.13,-10.32 -13.68,-19.78l37.99 10.79c-5.27,8.23 -14.17,11.87 -24.32,8.99zm-121.34 -40.51c-2.14,4.74 -0.27,9.98 4.46,12.12 4.74,2.14 10.04,0.14 12.18,-4.6l8.38 -18.53 30.71 13.88 -8.38 18.54c-2.14,4.74 -0.28,9.98 4.46,12.12 4.73,2.14 10.04,0.14 12.18,-4.6l24.83 -54.93c2.14,-4.74 0.08,-9.9 -4.66,-12.05 -4.74,-2.14 -9.84,-0.21 -11.98,4.52l-9.11 20.16 -30.71 -13.88 9.11 -20.16c2.14,-4.74 0.08,-9.9 -4.66,-12.05 -4.73,-2.14 -9.97,0.06 -11.98,4.52l-24.83 54.93zm-53.3 -97.5l-28.82 40.54c-3.01,4.24 -2.19,9.74 2.05,12.75l30.74 21.85c4.24,3.01 9.65,2.31 12.87,-1.96l8.52 -10.7c11.6,-14.52 20.63,-22.86 27.05,-25.22l3.99 2.84c4.24,3.01 9.7,1.98 12.72,-2.25l11.79 -16.58c3.01,-4.23 2.1,-9.62 -2.13,-12.63 -4.23,-3.01 -9.74,-2.19 -12.75,2.04l-6.8 9.56 -45.86 -32.61 6.8 -9.56c3.01,-4.24 2.1,-9.62 -2.13,-12.63 -4.23,-3.01 -9.74,-2.19 -12.75,2.05l-11.79 16.58c-3.01,4.24 -2.07,9.83 2.17,12.84l4.36 3.1zm7.49 56.34l-17.18 -12.22 24.09 -33.88 22.99 16.35c-6.93,4.36 -14.99,12.11 -24.48,23.4l-5.42 6.35zm-101.59 -11.14c5.26,5.02 12.93,4.94 17.85,-0.22 4.92,-5.16 4.63,-12.82 -0.63,-17.84 -5.16,-4.92 -12.82,-4.84 -17.74,0.32 -4.92,5.16 -4.63,12.82 0.53,17.74zm79.81 -83.71c-3.55,-3.38 -9.32,-3.35 -12.91,0.41l-41.5 43.52c-3.59,3.76 -3.34,9.53 0.2,12.91 3.76,3.59 9.63,3.23 13.02,-0.31l41.49 -43.52c3.59,-3.76 3.45,-9.43 -0.31,-13.01l0 0zm-103.74 -95.31l-4 29.99 -32.16 -6.28c-6.18,-1.26 -10.86,1.89 -11.74,7.07 -0.84,4.97 2.57,10.02 8.02,10.51l43.09 5.25 -21.42 15.23c-4.24,3.01 -5.15,8.39 -2.13,12.63 3.01,4.23 8.48,5.26 12.72,2.25l49.25 -35.02c4.24,-3.01 5.06,-8.52 2.05,-12.75 -3.01,-4.24 -8.39,-5.15 -12.63,-2.13l-21.66 15.4 8.96 -42.99c0.47,-2.16 0.08,-4.24 -1.21,-6.06l-2.15 -3.03 9.56 -6.8c4.24,-3.01 5.06,-8.51 2.04,-12.75 -3.01,-4.24 -8.39,-5.14 -12.63,-2.13l-16.7 11.87c-4.24,3.01 -5.27,8.48 -2.26,12.72l4.99 7.02zm-63.03 -13.12c10.08,3.92 20.33,3.52 30.75,-1.19 10.42,-4.71 17.49,-12.14 21.21,-22.3 3.66,-10.29 3.07,-20.61 -1.77,-31.3 -4.83,-10.69 -12.19,-17.95 -22.27,-21.87 -10.14,-4.05 -20.39,-3.65 -30.81,1.05 -10.42,4.71 -17.49,12.14 -21.15,22.43 -3.72,10.16 -3.26,20.54 1.57,31.23 4.83,10.69 12.32,17.89 22.47,21.94zm-5.96 -29.4c-2.63,-5.82 -2.88,-11.41 -0.86,-17.05 2.01,-5.63 5.89,-9.67 11.58,-12.24 5.68,-2.57 11.27,-2.81 16.84,-0.61 5.36,2.14 9.46,6.15 12.09,11.97 2.63,5.82 2.94,11.54 1.06,17.12 -2.01,5.64 -5.89,9.67 -11.58,12.24 -5.68,2.57 -11.27,2.82 -16.84,0.61 -5.56,-2.21 -9.66,-6.23 -12.29,-12.04zm-47.36 -115.23c-4.5,9.15 -5.31,18.8 -2.51,28.65 3.2,11.28 9.56,19.51 18.91,24.73 9.31,5.07 19.47,6.05 30.47,2.92 11,-3.12 19.12,-9.29 24.38,-18.5 5.26,-9.21 6.19,-19.51 2.95,-30.93 -2.88,-10.14 -8.6,-17.78 -17.06,-23.09 -2.1,-1.41 -4.67,-1.76 -7.38,-0.99 -4.71,1.34 -7.47,6.29 -6.14,11 0.69,2.43 1.97,4.22 3.99,5.35 4.59,2.56 7.78,6.74 9.4,12.46 3.61,12.71 -3.14,23.73 -15.28,27.18 -12.14,3.45 -23.35,-2.32 -27.04,-15.32 -1.5,-5.29 -1.13,-10.49 1.35,-15.36 1.04,-2.3 1.33,-4.55 0.72,-6.69 -1.34,-4.71 -6.47,-7.58 -11.19,-6.24 -2.57,0.73 -4.43,2.34 -5.57,4.82l0 0zm37.75 -71.53l-48.76 28.43c-10.86,6.04 -1.99,22.78 9.53,15.66l61.22 -36.96 4.74 1.57c7.96,2.82 10.89,6.17 11.31,11.65 0.22,2.96 -0.47,5.55 -2.24,7.76 -1.09,1.42 -1.55,3.1 -1.39,5.17 0.39,5.18 4.68,8.73 9.57,8.36 2.96,-0.22 5.23,-1.74 6.95,-4.55 3.59,-5.63 5.22,-11.71 4.73,-18.08 -1.05,-13.77 -9.05,-22.99 -24.16,-27.94l-77.56 -25.23c-12.2,-3.84 -17.72,13.71 -5.23,17.38l51.31 16.8zm-79.53 -169.7c-2.61,4.51 -1.46,9.85 3.05,12.46l102.05 60.31c3.93,2.51 8.77,1.57 11.92,-2.55 1.31,-1.43 1.85,-3.59 1.47,-6.53 -0.21,-3.05 -1.62,-5.27 -4.22,-6.79l-102.19 -60.33c-3.95,-2.37 -9.49,-0.94 -12.08,3.42zm58.56 -82.91c-1.91,4.83 0.35,10.03 5.19,11.94l55.25 21.78c4.83,1.91 9.9,-0.41 11.8,-5.24 1.91,-4.83 -0.27,-9.84 -5.1,-11.75l-47.1 -18.57 11.66 -29.56 47.1 18.57c4.84,1.91 9.9,-0.41 11.8,-5.24 1.8,-4.56 -0.55,-9.95 -5.1,-11.75l-55.25 -21.79c-4.84,-1.91 -9.98,0.22 -11.89,5.05l-18.35 46.55zm69.58 -134.44c-2.32,3.62 -2.22,7.04 0.1,10.29 -6.59,2.3 -12.03,6.93 -16.35,13.68 -5.85,9.12 -7.53,18.63 -5.08,28.84 2.53,10.09 8.48,18.14 18.1,24.31 9.62,6.17 19.67,8.38 29.89,6.47 10.3,-2.04 18.36,-7.45 24.21,-16.58 4.41,-6.87 6.26,-13.62 5.6,-20.57 4.05,0.83 7.2,-0.5 9.52,-4.12 2.8,-4.38 1.39,-9.87 -2.74,-12.51l-50.75 -32.54c-4.38,-2.81 -9.71,-1.64 -12.51,2.74zm37.39 55.02c-7.13,11.12 -19.52,13.94 -30.52,6.89 -11,-7.05 -13.77,-19.23 -6.48,-30.61 3.77,-5.87 8.69,-9.42 14.64,-10.72l25.88 16.59c1.43,6.03 0.25,11.98 -3.51,17.86zm51.1 -74.97l-54.52 -14.62c-11.93,-3.46 -17.58,14.63 -4.41,17.79l69.35 17.45 2.22 4.47c3.6,7.64 3.29,12.08 -0.31,16.23 -1.94,2.24 -4.27,3.57 -7.09,3.88 -1.77,0.23 -3.29,1.08 -4.65,2.65 -3.4,3.93 -2.9,9.47 0.8,12.68 2.24,1.94 4.92,2.49 8.12,1.73 6.53,-1.42 11.99,-4.54 16.17,-9.37 9.04,-10.44 9.96,-22.61 2.83,-36.83l-36.7 -72.84c-5.87,-11.37 -22.21,-2.93 -16.02,8.52l24.2 48.26zm59.82 -80.55c1.84,-6.55 0.73,-12.29 -3.21,-17.31 -3.95,-5.02 -9.26,-7.45 -16.05,-7.21 -6.89,0.12 -13.66,2.8 -20.43,8.12 -7.59,5.96 -11.98,12.63 -13.27,19.87 -2,8.75 8.32,13.48 14.39,8.71 1.52,-1.19 2.6,-3.18 3.34,-5.84 0.58,-3.1 2.74,-6.12 6.48,-9.06 5.49,-4.31 10.17,-4.6 12.65,-1.44 2.2,2.8 1.38,7.04 -3.03,10.32l-3.97 3.12c-4.46,3.69 -5.55,8.32 -2.52,12.18 3.03,3.85 7.64,4.19 12.31,0.52l5.98 -4.89c4.93,-4.06 9.46,-3.1 12.03,0.17 3.03,3.85 1.14,9.87 -5.28,14.91 -3.38,2.66 -7.3,4.41 -11.71,5.05 -3.11,0.37 -5.2,1.07 -6.37,1.98 -3.74,2.94 -4.74,8.63 -1.43,12.84 1.47,1.87 3.54,3.07 6.35,3.51 6.55,0.89 14.33,-2.19 23.32,-9.26 15.41,-12.11 19.67,-27.35 10.95,-38.45 -5.05,-6.42 -11.82,-9.03 -20.52,-7.85l0 0zm57.49 -80.35c-3.73,2.15 -5.22,5.23 -4.65,9.18 -6.91,-0.99 -13.87,0.61 -20.82,4.6 -9.4,5.4 -15.27,13.06 -17.8,23.25 -2.4,10.12 -0.83,20 4.87,29.91 5.7,9.91 13.6,16.5 23.55,19.51 10.08,2.94 19.73,1.84 29.12,-3.56 7.08,-4.07 11.84,-9.2 14.45,-15.67 3.21,2.61 6.62,2.87 10.35,0.73 4.51,-2.59 5.78,-8.12 3.34,-12.37l-30.05 -52.26c-2.59,-4.51 -7.86,-5.93 -12.37,-3.34zm7.84 66.06c-11.45,6.59 -23.75,3.38 -30.26,-7.95 -6.51,-11.33 -3.36,-23.42 8.35,-30.15 6.05,-3.48 12.05,-4.36 17.93,-2.77l15.32 26.64c-1.51,6.01 -5.29,10.75 -11.34,14.23zm116.83 -148.94c-5.2,-0.38 -9.49,3 -9.86,8.2l-9.51 118.15c-0.54,4.63 2.43,8.57 7.51,9.6 1.86,0.55 4.04,0.09 6.51,-1.54 2.66,-1.52 4.02,-3.77 4.25,-6.76l9.47 -118.3c0.39,-4.59 -3.31,-8.94 -8.37,-9.35zm125.8 14.82c-10.98,0.28 -20.11,3.63 -27.23,9.9 -8.72,7.65 1.72,20.9 11.32,12.93 4.66,-3.83 10.1,-5.9 16.48,-6.06 11.73,-0.3 19.89,5.44 23.1,14.86l-48.24 1.22c-5.19,0.13 -7.66,2.42 -8.56,7.79 -1.63,11.92 3.6,24.86 15.84,33.02 6.2,4.15 13.22,6.05 21.39,6 11.14,-0.14 20.24,-4.08 27.62,-11.84 7.38,-7.76 10.84,-17.51 10.55,-29.23 -0.29,-11.43 -4.24,-20.83 -12,-28.07 -7.61,-7.38 -17.65,-10.84 -30.27,-10.52zm3.52 62.74c-10.24,0.26 -17.51,-5.35 -18.94,-14.82l39.48 -1c-2.58,9.42 -10,15.55 -20.54,15.82zm89.45 -1.92l-18.05 -53.48c-3.73,-11.85 -21.92,-6.53 -17.25,6.19l23.91 67.4 -2.49 4.32c-4.36,7.23 -8.23,9.43 -13.68,8.74 -2.95,-0.37 -5.34,-1.57 -7.16,-3.75 -1.17,-1.35 -2.72,-2.14 -4.78,-2.4 -5.15,-0.65 -9.49,2.84 -10.11,7.7 -0.37,2.94 0.65,5.47 3.06,7.72 4.8,4.65 10.43,7.46 16.76,8.27 13.7,1.74 24.34,-4.24 32.23,-18.06l40.29 -70.91c6.21,-11.18 -9.87,-20.11 -15.97,-8.61l-26.76 46.89zm97.63 -37.47c-10.67,-3.18 -20.58,-1.99 -29.94,3.23 -9.35,5.22 -15.52,13.34 -18.73,24.63 -3.12,11 -2.15,21.15 2.93,30.47 5.26,9.21 13.81,15.5 25.95,18.94 10.57,3 20.28,2.52 28.94,-1.35 10.6,-4.71 4.58,-20.46 -6.96,-15.71 -5.58,2.27 -11.4,2.63 -17.54,0.89 -11.28,-3.21 -17.37,-11.11 -17.63,-21.06l46.42 13.18c5,1.42 8.04,-0.03 10.5,-4.89 5.1,-10.9 3.96,-24.81 -5.3,-36.23 -4.68,-5.8 -10.82,-9.71 -18.64,-12.09zm-4.48 16.32c9.86,2.8 15.13,10.32 13.68,19.78l-37.99 -10.79c5.27,-8.23 14.17,-11.87 24.32,-8.99zm121.14 41.03c2.14,-4.74 0.27,-9.98 -4.46,-12.12 -4.74,-2.14 -10.04,-0.14 -12.18,4.6l-8.38 18.53 -30.71 -13.88 8.38 -18.54c2.14,-4.74 0.28,-9.98 -4.46,-12.12 -4.73,-2.14 -10.04,-0.14 -12.18,4.6l-24.83 54.93c-2.14,4.74 -0.08,9.9 4.66,12.05 4.74,2.14 9.84,0.21 11.98,-4.52l9.11 -20.16 30.71 13.88 -9.11 20.16c-2.14,4.74 -0.08,9.9 4.66,12.05 4.73,2.14 9.97,-0.06 11.98,-4.52l24.83 -54.93zm52.94 98.13l28.82 -40.54c3.01,-4.24 2.19,-9.74 -2.05,-12.75l-30.74 -21.85c-4.24,-3.01 -9.65,-2.31 -12.87,1.96l-8.52 10.7c-11.6,14.52 -20.63,22.86 -27.05,25.22l-3.99 -2.84c-4.24,-3.01 -9.7,-1.98 -12.72,2.25l-11.79 16.58c-3.01,4.23 -2.1,9.62 2.13,12.63 4.23,3.01 9.74,2.19 12.75,-2.04l6.8 -9.56 45.86 32.61 -6.8 9.56c-3.01,4.24 -2.1,9.62 2.13,12.63 4.23,3.01 9.74,2.19 12.75,-2.05l11.79 -16.58c3.01,-4.24 2.07,-9.83 -2.17,-12.84l-4.36 -3.1zm-7.49 -56.34l17.18 12.22 -24.09 33.88 -22.99 -16.35c6.93,-4.36 14.99,-12.11 24.48,-23.4l5.42 -6.35zm101.25 11.56c-5.26,-5.02 -12.93,-4.94 -17.85,0.22 -4.92,5.16 -4.63,12.82 0.63,17.84 5.16,4.92 12.82,4.84 17.74,-0.32 4.92,-5.16 4.63,-12.82 -0.53,-17.74zm-79.81 83.71c3.55,3.38 9.32,3.35 12.91,-0.41l41.5 -43.52c3.59,-3.76 3.34,-9.53 -0.2,-12.91 -3.76,-3.59 -9.63,-3.23 -13.02,0.31l-41.49 43.52c-3.59,3.76 -3.45,9.43 0.31,13.01l0 0zm102.63 97.2l5.43 -29.76 31.82 7.82c6.11,1.55 10.94,-1.37 12.06,-6.5 1.08,-4.92 -2.08,-10.13 -7.51,-10.89l-42.79 -7.31 22.12 -14.19c4.37,-2.8 5.54,-8.14 2.74,-12.51 -2.8,-4.37 -8.22,-5.66 -12.59,-2.86l-50.87 32.62c-4.38,2.81 -5.46,8.26 -2.66,12.64 2.81,4.38 8.14,5.54 12.51,2.74l22.37 -14.35 -11.02 42.51c-0.57,2.13 -0.28,4.24 0.92,6.11l2 3.13 -9.87 6.33c-4.38,2.81 -5.46,8.26 -2.66,12.64 2.8,4.38 8.14,5.54 12.51,2.74l17.25 -11.06c4.38,-2.81 5.67,-8.22 2.86,-12.59l-4.65 -7.25zm62.96 12.06c-10.08,-3.92 -20.33,-3.52 -30.75,1.19 -10.42,4.71 -17.49,12.14 -21.21,22.3 -3.66,10.29 -3.07,20.61 1.77,31.3 4.83,10.69 12.19,17.95 22.27,21.87 10.14,4.05 20.39,3.65 30.81,-1.05 10.42,-4.71 17.49,-12.14 21.15,-22.43 3.72,-10.16 3.26,-20.54 -1.57,-31.23 -4.83,-10.69 -12.32,-17.89 -22.47,-21.94zm5.96 29.4c2.63,5.82 2.88,11.41 0.86,17.05 -2.01,5.63 -5.89,9.67 -11.58,12.24 -5.68,2.57 -11.27,2.81 -16.84,0.61 -5.36,-2.14 -9.46,-6.15 -12.09,-11.97 -2.63,-5.82 -2.94,-11.54 -1.06,-17.12 2.01,-5.64 5.89,-9.67 11.58,-12.24 5.68,-2.57 11.27,-2.82 16.84,-0.61 5.56,2.21 9.66,6.23 12.29,12.04zm46.84 115.42c4.5,-9.15 5.31,-18.8 2.51,-28.65 -3.2,-11.28 -9.56,-19.51 -18.91,-24.73 -9.31,-5.07 -19.47,-6.05 -30.47,-2.92 -11,3.12 -19.12,9.29 -24.38,18.5 -5.26,9.21 -6.19,19.51 -2.95,30.93 2.88,10.14 8.6,17.78 17.06,23.09 2.1,1.41 4.67,1.76 7.38,0.99 4.71,-1.34 7.47,-6.29 6.14,-11 -0.69,-2.43 -1.97,-4.22 -3.99,-5.35 -4.59,-2.56 -7.78,-6.74 -9.4,-12.46 -3.61,-12.71 3.14,-23.73 15.28,-27.18 12.14,-3.45 23.35,2.32 27.04,15.32 1.5,5.29 1.13,10.49 -1.35,15.36 -1.04,2.3 -1.33,4.55 -0.72,6.69 1.34,4.71 6.47,7.58 11.19,6.24 2.57,-0.73 4.43,-2.34 5.57,-4.82l0 0zm-38.49 71.66l48.76 -28.43c10.86,-6.04 1.99,-22.78 -9.53,-15.66l-61.22 36.96 -4.74 -1.57c-7.96,-2.82 -10.89,-6.17 -11.31,-11.65 -0.22,-2.96 0.47,-5.55 2.24,-7.76 1.09,-1.42 1.55,-3.1 1.39,-5.17 -0.39,-5.18 -4.68,-8.73 -9.57,-8.36 -2.96,0.22 -5.23,1.74 -6.95,4.55 -3.59,5.63 -5.22,11.71 -4.73,18.08 1.05,13.77 9.05,22.99 24.16,27.94l77.56 25.23c12.2,3.84 17.72,-13.71 5.23,-17.38l-51.31 -16.8zm78.58 169.65c2.61,-4.51 1.46,-9.85 -3.05,-12.46l-102.05 -60.31c-3.93,-2.51 -8.77,-1.57 -11.92,2.55 -1.31,1.43 -1.85,3.59 -1.47,6.53 0.21,3.05 1.62,5.27 4.22,6.79l102.19 60.33c3.95,2.37 9.49,0.94 12.08,-3.42zm-59.84 86.55c2.14,-4.73 0.14,-10.04 -4.6,-12.18l-54.12 -24.46c-4.74,-2.14 -9.9,-0.08 -12.05,4.66 -2.14,4.74 -0.21,9.84 4.52,11.98l46.14 20.85 -13.09 28.95 -46.14 -20.86c-4.74,-2.14 -9.9,-0.08 -12.05,4.66 -2.02,4.46 0.06,9.97 4.52,11.98l54.12 24.46c4.73,2.14 9.98,0.27 12.12,-4.46l20.61 -45.6zm-69.68 130.26c2.32,-3.62 2.22,-7.04 -0.1,-10.29 6.59,-2.3 12.03,-6.93 16.35,-13.68 5.85,-9.12 7.53,-18.63 5.08,-28.84 -2.53,-10.09 -8.48,-18.14 -18.1,-24.31 -9.62,-6.17 -19.67,-8.38 -29.89,-6.47 -10.3,2.04 -18.36,7.45 -24.21,16.58 -4.41,6.87 -6.26,13.62 -5.6,20.57 -4.05,-0.83 -7.2,0.5 -9.52,4.12 -2.8,4.38 -1.39,9.87 2.74,12.51l50.75 32.54c4.38,2.81 9.71,1.64 12.51,-2.74zm-37.39 -55.02c7.13,-11.12 19.52,-13.94 30.52,-6.89 11,7.05 13.77,19.23 6.48,30.61 -3.77,5.87 -8.69,9.42 -14.64,10.72l-25.88 -16.59c-1.43,-6.03 -0.25,-11.98 3.51,-17.86zm-52.44 75.2l53.76 17.2c11.75,4.03 18.26,-13.77 5.25,-17.56l-68.44 -20.74 -2 -4.57c-3.23,-7.8 -2.71,-12.22 1.08,-16.2 2.05,-2.15 4.44,-3.36 7.27,-3.54 1.78,-0.15 3.34,-0.92 4.77,-2.43 3.59,-3.76 3.35,-9.32 -0.2,-12.7 -2.15,-2.05 -4.79,-2.72 -8.03,-2.12 -6.59,1.1 -12.19,3.97 -16.6,8.59 -9.53,9.99 -11.02,22.11 -4.59,36.66l33.18 74.51c5.32,11.63 22.05,3.99 16.41,-7.75l-21.87 -49.36zm-59.41 79.47c-1.84,6.55 -0.73,12.29 3.21,17.31 3.95,5.02 9.26,7.45 16.05,7.21 6.89,-0.12 13.66,-2.8 20.43,-8.12 7.59,-5.96 11.98,-12.63 13.27,-19.87 2,-8.75 -8.32,-13.48 -14.39,-8.71 -1.52,1.19 -2.6,3.18 -3.34,5.84 -0.58,3.1 -2.74,6.12 -6.48,9.06 -5.49,4.31 -10.17,4.6 -12.65,1.44 -2.2,-2.8 -1.38,-7.04 3.03,-10.32l3.97 -3.12c4.46,-3.69 5.55,-8.32 2.52,-12.18 -3.03,-3.85 -7.64,-4.19 -12.31,-0.52l-5.98 4.89c-4.93,4.06 -9.46,3.1 -12.03,-0.17 -3.03,-3.85 -1.14,-9.87 5.28,-14.91 3.38,-2.66 7.3,-4.41 11.71,-5.05 3.11,-0.37 5.2,-1.07 6.37,-1.98 3.74,-2.94 4.74,-8.63 1.43,-12.84 -1.47,-1.87 -3.54,-3.07 -6.35,-3.51 -6.55,-0.89 -14.33,2.19 -23.32,9.26 -15.41,12.11 -19.67,27.35 -10.95,38.45 5.05,6.42 11.82,9.03 20.52,7.85l0 0zm-57.8 79.89c3.73,-2.15 5.22,-5.23 4.65,-9.18 6.91,0.99 13.87,-0.61 20.82,-4.6 9.4,-5.4 15.27,-13.06 17.8,-23.25 2.4,-10.12 0.83,-20 -4.87,-29.91 -5.7,-9.91 -13.6,-16.5 -23.55,-19.51 -10.08,-2.94 -19.73,-1.84 -29.12,3.56 -7.08,4.07 -11.84,9.2 -14.45,15.67 -3.21,-2.61 -6.62,-2.87 -10.35,-0.73 -4.51,2.59 -5.78,8.12 -3.34,12.37l30.05 52.26c2.59,4.51 7.86,5.93 12.37,3.34zm-7.84 -66.06c11.45,-6.59 23.75,-3.38 30.26,7.95 6.51,11.33 3.36,23.42 -8.35,30.15 -6.05,3.48 -12.05,4.36 -17.93,2.77l-15.32 -26.64c1.51,-6.01 5.29,-10.75 11.34,-14.23zm-117.19 148.09c5.2,0.38 9.49,-3 9.86,-8.2l9.51 -118.15c0.54,-4.63 -2.43,-8.57 -7.51,-9.6 -1.86,-0.55 -4.04,-0.09 -6.51,1.54 -2.66,1.52 -4.02,3.77 -4.25,6.76l-9.47 118.3c-0.39,4.59 3.31,8.94 8.37,9.35z"></path> </g> </svg> 