<?xml version="1.0" encoding="UTF-16"?> <svg xmlns="http://www.w3.org/2000/svg" xmlns:xlink="http://www.w3.org/1999/xlink" xmlns:xodm="http://www.corel.com/coreldraw/odm/2003" xml:space="preserve" width="42.224mm" height="74.3556mm" version="1.1" style="shape-rendering:geometricPrecision; text-rendering:geometricPrecision; image-rendering:optimizeQuality; fill-rule:evenodd; clip-rule:evenodd" viewBox="0 0 277.93 489.44"> <defs> <style type="text/css"> .fil0 {fill:#8B8C3A} </style> </defs> <g id="Слой_x0020_1"> <metadata id="CorelCorpID_0Corel-Layer"></metadata> <path class="fil0" d="M144.14 150.99c1.87,0.66 4.13,2.29 5.97,3.44 1.74,1.08 4.24,2.48 6.17,3.5 2.16,1.13 3.82,2.09 6.15,3.08 2.05,0.88 5.08,1.9 6.77,2.82 -2.07,10.29 0.32,6.56 1.66,12.52 -7.49,-2.32 -21.8,-17.38 -26.73,-25.36zm38.68 -3.43c2.44,0.94 26.54,17.54 28.26,18.89 6.02,4.71 20.12,16.32 21.17,26.5l-5.77 -5.85c-6.39,-5.94 -19.81,-14.32 -27.06,-20.43 -6.57,-5.53 -10.41,-10.31 -15.42,-17.12 -0.75,-1.02 -0.61,-1.02 -1.18,-1.99zm-8.13 -21.99c1.79,2 4.25,5.97 6.24,8.58 7.74,10.16 7.1,8.54 14.05,16.29 1.87,2.08 6.11,5.94 7.37,8.08l-18.71 -11.68c-2,-1.44 -3.79,-3.47 -5.55,-4.51 0.42,1.1 2.82,3.51 4,5.21 6.36,9.08 1.72,5.33 12.06,16.47 3.05,3.29 19.28,15.46 21.48,16.23 -5.94,-2.83 -13.01,-5.65 -20.07,-8.42 -1.28,-0.5 -4.13,-2.16 -4.84,-2.26 -3.15,-0.49 -1.05,1.73 -5.41,-1.1 -8.24,-5.35 -18.96,-12.49 -20.59,-23.97 -1.17,-8.24 0.86,-18.77 9.95,-18.92zm-47.94 11.58c1.19,0.38 4.1,3.4 5.31,4.55 3.53,3.33 8.52,5.84 10.94,9.3 4.43,6.35 8.79,11.1 14.42,16.34 3.8,3.53 10.63,8.09 11.55,9.19 -5.52,-1.61 -21.52,-11.2 -26.07,-14.88 -5.16,-4.19 -16.13,-13.66 -16.15,-24.49zm14.04 -14.16c4.52,8.16 5.36,11.56 11.72,20.26 2.18,2.98 4.47,6.22 6.95,8.87 1.48,1.58 2.06,2.63 3.73,4.2 1.53,1.43 3.4,2.72 4.12,4.52 -4.73,-1.27 -19.25,-10.35 -23.83,-13.4 -2.63,-1.74 -2.89,-1.68 -4.26,-4.99 -0.95,-2.3 -1.83,-4.43 -2.44,-6.84 -0.59,-2.33 -1.18,-5.7 -0.9,-8.24 0.37,-3.27 1.39,-4.62 4.92,-4.38zm-23.45 -51.52c2.68,0.62 14.28,7.96 16.92,9.98 8.78,6.73 21.02,18.37 27.66,26.86 2.41,3.09 10.27,12.6 11.58,16.07 -10.87,1.74 -14.03,17.06 -6,30.24 1.2,1.96 5.12,7.46 6.34,8.09 -2.73,-0.82 -9.99,-8.74 -12.03,-11.65 -1.1,-1.57 -2.32,-3.63 -3.55,-4.85 0.68,2.31 1.78,2.7 2.4,5.02 -4.1,-1.93 -16.19,-21.76 -18.55,-27.86 1.02,-1 1.02,-0.37 1.56,-1.71 -3.63,-2.7 -2.26,0.35 -4.46,-4.75 -4.64,-10.75 -9.31,-23.67 -14.26,-33.69 -1.11,-2.25 -2.28,-4.03 -3.59,-6.07 -1.4,-2.17 -2.88,-3.84 -4.03,-5.69zm15.02 91.04l2.62 1.34c0.82,1.65 6.62,4.49 9.11,5.83 1.28,0.69 4.51,1.75 5.17,2.79 1.37,2.16 0.14,6.07 10.58,13.11 2.47,1.66 7.77,4.95 10.43,5.27 2.1,0.4 1.99,0.23 3.41,1.97 1.99,0.88 3.53,1.45 6.23,1.39l-4.43 -1.82c-7.56,-3.33 -23.37,-10.81 -24.59,-19.24 2.47,0.2 23.12,9.56 27.79,9.39 2.53,-0.07 0,0.05 1.76,0.14 0.65,0.03 0.61,0.13 1.16,-0.06 -0.58,-1.02 -9.68,-4.44 -11.55,-10.79 -0.59,-2 -1.11,-5.36 0.71,-6.57 1.96,-1.37 2.84,1.17 9.77,2.81 2.78,0.66 6.2,3.14 9.57,4.12 0.77,0.16 -0.02,-0.29 1.11,0.3 1.01,0.53 0.71,0.39 1.39,1.04 1.05,1.21 13.48,4.82 16.42,6.01 8.67,3.52 22.93,10.83 24.82,20.8 1.36,7.17 1.25,12.76 -1.34,19.27 -3.94,-0.25 -5.31,-3.08 -12.59,-1.98 -1.77,0.27 -4.08,1.11 -5.56,1.83 -1.81,0.88 -3.6,2.32 -5.04,2.72 -1.58,-0.86 -3.26,-1.8 -2.89,-4.54 0.38,-2.79 2.32,-3.02 3.57,-5.22 -2.65,0.53 -4.63,2.46 -5.34,4.79 -1.35,4.43 1.25,5.49 2.57,7.3 -3.06,8.62 -17.53,14.06 -26.04,15.06 2.45,0.76 11.68,-2.46 14.35,-3.4 15.07,-5.3 10.93,-13.11 20.43,-16.5 5.8,-2.07 10.95,-1.35 15.93,0.77 -0.5,4.56 -4.4,8.48 -4.62,9.88 -0.07,0.44 0.54,1.36 -1.01,3.22 -8.77,10.55 -22.56,17.51 -34.65,24.72 -9.2,5.49 -35.21,19.59 -39.06,29.53 -0.85,2.18 -0.87,7.87 2.23,6.18 1.4,-1.4 -4.58,-5.99 12.1,-18.24 6.04,-4.43 12.71,-8.34 19.36,-12.3 6.63,-3.95 13.36,-7.69 19.61,-11.61 5.58,-3.5 14.7,-9.55 18.15,-13.51 11.58,-13.29 16.92,-23.98 10.6,-46.53 -2.33,-8.29 -5.9,-14.78 -9.6,-21.66 -9.1,-16.9 -23.68,-36.38 -34.26,-52.34 -1.12,-1.69 -2.13,-2.67 -3.35,-4.56l-26.63 -36.25c-2.15,-2.79 -4.59,-5.95 -6.6,-8.79 -2.27,-3.22 -4.58,-5.86 -6.85,-8.97 -9.97,-13.67 -23.97,-32.04 -30.82,-47.9 -1.51,-3.5 -3.08,-8.22 -4.56,-11.29 -0.44,4.61 4.92,17 6.85,20.87 8.03,16.05 13.01,21.2 22.72,34.89 4.1,5.77 8.26,11.03 12.47,16.55l36.89 49.74c1.73,2.34 11.05,15.24 11.72,17.07 -3.17,-2.95 -6.49,-6.39 -9.6,-9.52 -1.72,-1.73 -3.11,-3.13 -4.86,-4.82 -1.73,-1.68 -3.05,-3.64 -4.71,-5.25 1.09,3.52 20.17,20.89 25.16,28.33 3.51,5.23 7.14,10.94 10.39,16.43 2.64,4.45 8.15,12.56 9.53,16.98l-8.35 -10.68 -13.87 -13.83c-2.1,-1.83 -5.42,-6.1 -7.29,-8.54 -4.36,-5.66 -8.03,-12.31 -11.84,-19.39 -2.03,-3.77 -3.66,-6.73 -5.17,-10.63 -0.38,-0.99 -5.57,-8.34 -6.4,-9.27l19.92 37.94c0.66,0.93 0.56,0.71 0.77,0.85 -6.26,-6.14 -16.35,-19.7 -21.16,-27.06l-14.1 -18.44c-5.76,-6.91 -8.89,-10.92 -13.78,-18.79 -1.97,-3.18 -3.97,-7.37 -5.92,-10.17 2.27,6.87 9.56,15.92 10.32,18.21l-8.59 -7.36c-8.57,-6.35 -17.36,-9.48 -26.19,-15.14 -1.45,-0.93 -3.82,-2.89 -5.08,-3.26 1.14,2.38 9.03,7.28 15.98,24.98l11.77 29.76c-10.24,4.32 -1.68,19.29 -1.05,23.03 -3.31,-1.71 -9.47,-8.7 -12.76,-8.71 -3.01,8.25 6.33,18.53 11.09,23.31 7.22,7.26 16.03,10.7 20.64,14.44 -2.85,-0.68 -9.64,-3.83 -12.28,-5.22 -2.64,-1.38 -9.76,-5.14 -12.34,-5.81 -0.43,0.58 -0.41,0.08 -0.43,1.01z"></path> <path class="fil0" d="M175.74 204.59c0.06,-0.1 0.23,0.13 0.33,0.21 -6.3,1.01 -11.67,2.18 -18.4,0.9 -4.29,-0.82 -10.02,-4.67 -9.65,-9.08 2.41,-0.75 6.01,-0.04 8.56,0.19 5.02,0.44 3.72,0.29 6.63,2.55 5.03,3.9 7.41,3.41 11.16,4.61l1.37 0.63zm-13.53 -7.3c7.57,-0.39 9.84,0.01 19.16,-0.73 1.86,-0.15 4.26,2.12 6.64,3.06 2.26,0.9 5.25,1.66 7.61,2.05 -2.98,1.3 -14.95,2.2 -18.87,1.87 -5.4,-0.45 -12.4,-3.13 -14.54,-6.26zm30.39 -23.77c-0.67,-0.66 -0.38,-0.52 -1.39,-1.04 -1.13,-0.59 -0.34,-0.14 -1.11,-0.3 0.24,5.33 -0.83,12.7 0.42,17.49 0.65,2.48 1.29,4.1 2.57,6.2 2.48,4.09 2.73,2.45 4.05,4.61 -3.62,-0.11 -10.5,-3.18 -12.61,-4.86 -5.56,-4.45 -4.67,-7.31 -4.71,-12.11 3.09,0.02 5.81,1.36 8.32,2.16 -1.78,-1.18 -3.95,-2.32 -6.53,-3.06 -0.56,0.2 -0.51,0.09 -1.16,0.06 -1.75,-0.09 0.77,-0.21 -1.76,-0.14l0.08 1.32c-1.02,7.9 -0.1,4.94 2.44,11.68l-20.89 -1.07c-0.98,-0.34 -4.57,-7.16 2.42,-4.35 2.59,1.04 7.96,2.43 10.94,2.69 -1.41,-1.75 -1.31,-1.58 -3.41,-1.97 -0.92,1.05 0.71,0.64 -1.64,0.55 -1.95,-0.08 -8.53,-3.05 -10.26,-3.9 -9.42,-4.59 -20.88,-12.89 -24.72,-23.23 0.45,-0.62 -1.05,-0.57 1.33,-0.42l-2.62 -1.34c1.97,11.37 15.95,20.51 25.48,25.55 -0.11,6.22 0.57,3.41 0.89,6.56l-10.9 0.02c-4.08,1.25 0.2,7.41 3.38,9.7 2.4,1.73 4.75,2.58 7.6,2.95l2.21 0.41c0.87,0.36 0.43,0.11 1.03,0.6 -9.46,2.57 -18.87,7.57 -22.92,13.76 -5.73,8.74 -1.22,14.77 -4.99,22.72 -1.07,2.27 -3.03,3.92 -3.37,5.67 2.03,2.12 17.37,10.76 23.21,11.81 5.44,0.98 10.6,0.81 15.88,-0.73 3.1,-0.91 10.3,-3.64 11.56,-5.56 -12.65,5.82 -22.56,7.95 -36.14,1.34 -2.67,-1.3 -7.98,-3.95 -10.07,-5.53 0.95,-1.25 0.36,-0.4 1.3,-1.04 0.42,-0.29 0.5,-0.26 0.84,-0.58 1,-0.94 0.18,0.29 1.07,-1.38 -9.61,0.45 -2.16,1.65 -6.36,1.53 0.85,-1.64 3.47,-1.52 6.42,-7.8 2.42,-5.15 -0.05,-9.05 1.14,-13.77 1.81,-7.2 8.28,-11.44 14.37,-15.11 7.64,-4.61 12.5,-5.67 22.11,-7.27 5.13,-0.85 19.78,-4.32 24.78,-3.6 1.16,0.17 0.47,-0 1.01,0.3 -20.02,2.89 -27.5,12.43 -36.07,27.23 -1.88,3.25 -3.81,6.8 -6.12,9.7 -0.93,1.17 -1.88,1.74 -2.62,3.44 0.97,1.54 3.04,2.26 5.18,3.09 1.77,0.69 4.25,1.52 6.39,1.97 3.62,0.77 11.23,1.83 14.71,0.74 -7.96,0 -17.01,-1.78 -23.2,-5.37 0.32,-1.46 14.82,-25.4 18.4,-28.55 14.92,-13.1 18.09,-9.56 34.45,-12.59 10.53,-1.95 15.25,6.09 18.63,12.53 -0.01,-5.3 -5.13,-9.66 -8.45,-11.62 -7.06,-4.18 -10.05,-0.48 -17.17,-2.61 -0.46,-8.93 12.37,-6.32 18.19,-2.82 2.51,1.51 3.33,3.14 5.58,4.09 -1.68,-5.49 -14.85,-10.84 -22.12,-7.58 -3.12,1.4 -3.48,2.74 -4.88,5.55 -8.69,0.02 -11.39,-10.71 -11.52,-17.51l-0.19 -7.55c0.42,-2.92 -0.76,-1.48 1.54,-1.67z"></path> <path class="fil0" d="M231.17 279.63c0.6,-6.76 1.36,-11.82 0.77,-19.08 -0.45,-5.64 -2.76,-10.98 -1.64,-16.69 -5.1,5.95 -0.73,3.35 -0.74,11.41 -0.01,5.18 0.36,10.74 0.01,15.85 -1.22,17.81 -9.85,29.92 -23.02,39.89 -19.21,14.54 -40.55,23.85 -58.18,35.92 -10.39,7.11 -17.56,12.37 -24.56,22.49 -1.01,1.46 -2.22,3.15 -2.81,5.11 -1.13,3.78 -0.59,4.8 1.4,5.28 3.21,-10.17 5.44,-10.88 12.46,-19.15 16.31,-19.23 47.92,-30.52 66.73,-43.2 9.86,-6.64 17.71,-12.03 23.94,-23.12 2.34,-4.17 2.96,-6.43 4.67,-11.2 0.86,-2.4 2.13,-2.43 3.88,-3.99 4.07,-3.64 5.57,-9.38 10.76,-12.53 2.28,-1.38 8.39,-4.15 10.87,-4.09 -2.98,-0.05 -6.08,0.84 -9.1,1.09 -4.06,0.33 -4.95,0.77 -6.66,3.83 -2.29,4.11 -4.99,11.02 -8.8,12.16z"></path> <path class="fil0" d="M76.37 452.55c-5,-3.97 -0.64,-22.16 1.32,-27.7 9.56,-26.99 41.44,-56.16 60.59,-76.58 6.39,-6.82 9.76,-9.84 15.59,-18.7 4.43,-6.73 8.41,-14.33 12.77,-21.53 1.24,-2.04 2.22,-3.54 3.46,-5.32 2.56,-3.67 4.99,-12.43 9.16,-16.07 -1.81,1.39 -3.59,3.48 -4.85,5.4 -3.65,5.56 -1.88,4.55 -2.66,7.41 -0.29,1.08 -6.77,9.68 -8.24,12.04 -5.48,8.77 -9.73,17.46 -16,24.9 -6.4,7.59 -12.47,13.48 -20.09,20.81 -7.05,6.79 -13.15,14 -20.11,20.79 -1.17,1.15 -1.66,1.34 -2.67,2.59l-4.91 5.66c-15.35,18.42 -32.45,46.45 -36.08,70.71 -1.51,10.11 0.37,28.23 8.27,32.47 -0.71,-2.03 -2.7,-3.92 -3.93,-6.68 -5.94,-13.31 -3.1,-28.36 1.38,-41.58l5.53 -13.75c-0.86,4.23 -2.44,8.19 -2.96,13.4 -0.26,2.63 -0.38,5.6 0.38,8.13 0.82,2.7 1.66,2.86 4.04,3.6z"></path> <path class="fil0" d="M-0 419.73c0.64,-1.2 1.52,-4.55 2.13,-6.19 3.45,-9.15 10.19,-18.19 17.14,-24.67 10.15,-9.46 15.8,-13.01 29.09,-21.01 23.85,-14.34 44.06,-20.98 66.82,-33.01 6.81,-3.6 15.38,-8.25 20.89,-12.53 4.83,-3.76 13.7,-11.23 15.99,-16.89 -2.76,2.84 -5.12,6.06 -8.03,8.57 -16.15,13.91 -33.5,21.77 -53.07,30.47 -7.9,3.51 -15.09,6.67 -22.53,10.46 -14.78,7.53 -29.64,16.37 -41.42,25.41 -7.85,6.03 -26.6,24.13 -27,39.4z"></path> <path class="fil0" d="M77.1 143.66c-5.13,-0.79 -18.8,-5.76 -23.93,-8.37 -1.63,-0.83 -5.9,-3.31 -7.4,-3.51 1.25,4.53 17.19,14.86 22.39,17.53 3.87,1.99 24.78,11.82 28.54,11.14 -14,-4.71 -25.78,-9.75 -37.88,-17.62 -2.57,-1.68 -8.74,-6.54 -10.02,-8.51l11.82 5.39c9.34,3.78 22.78,7.88 32.75,10.28 2.75,0.66 5.6,1.71 6.99,1.13 -17.06,-4.77 -39.82,-14.2 -50.04,-28.08 0.95,0.39 12.39,8.36 24.87,13.53 7.5,3.11 21.41,8.54 29.56,9.72 -1.75,-1.48 -27.45,-11.02 -30.26,-12.15 -7.75,-3.13 -14.52,-5.89 -21.14,-10.48 -1.78,-1.23 -4.27,-3.91 -6.09,-4.06 -0.15,5.65 15.12,16.27 20.73,19.33 1.32,0.72 2.98,1.54 4.38,2.23 0.94,0.47 1.6,0.77 2.38,1.13l2.07 1.15c0.07,0.05 0.19,0.14 0.28,0.21z"></path> <path class="fil0" d="M98.35 361.04c-0.71,-3.69 -1.14,-6 0.68,-9.37 5.2,-9.61 30.17,-16.83 41.38,-25.5l5.72 -4.65c-0.33,0.34 -0.14,0.19 -0.57,0.63l-2.42 1.99c-18.12,13.79 -42.44,17.14 -46.85,29.19 -2.42,6.62 1.7,8.63 1.72,8.58 0.05,-0.09 0.2,0.14 0.29,0.22 -0.47,1.7 -1.29,2.87 -1.27,4.84 0.03,2.93 0.98,2.56 1.62,4.39l-5.6 6.88c-1.7,2.25 -3.67,5.36 -3.5,9.14 1.35,-1.36 2.31,-5.27 5.47,-9.37 2.12,-2.75 4.3,-5.08 6.73,-7.34 6.18,-5.77 9.09,-7.93 15.46,-13.12 8.81,-7.17 23.86,-17.59 29.84,-27.17 -0.98,0.54 -4.14,4.15 -5.43,5.41l-11.98 10c-1,0.84 -2.27,1.69 -3.24,2.48l-15.29 11.97c-2.15,1.75 -3.96,3.33 -6.05,4.95 -1.93,1.5 -3.39,4.22 -5.64,4.82 -0.87,-12.81 21.94,-22.7 23.83,-25.55 -4.2,1.15 -18.28,9.59 -22.29,13.99 -1.01,1.11 -1.18,1.81 -2.63,2.59z"></path> <path class="fil0" d="M244.11 223.63c3.24,2.2 11.94,-1.14 21.76,5.03 3.2,2.01 1.46,1.96 4.58,4.62 2.55,2.18 5.58,7.65 5.34,12.79 -0.29,6.17 -2.99,8.72 -2.06,16.06 -3.42,-0.44 -4.87,-1.07 -8.26,-0.33 0.86,0.83 0.9,0.78 3,1.15 4.58,0.82 7.01,2.49 9.45,2.4 -0.56,-3.17 -3.09,-2.52 -2.54,-7.81 0.25,-2.38 1.57,-5.73 2.07,-8.29 5.08,-26.08 -31.33,-32.24 -33.34,-25.61z"></path> <path class="fil0" d="M64.83 162.67c0.54,1.22 3,2.56 5.11,4.64 4.68,4.63 9.7,12.37 13.72,16.63l5.17 4.94c1.84,1.52 3.59,2.82 5.82,4.31 6.49,4.35 7.24,3.57 15.31,5.02 0.57,15.72 24.77,23.95 27.64,18.38 -2.33,-1.3 -7.78,3.51 -18.23,-4.16 -3.66,-2.69 -6.6,-6.04 -7.94,-10.58 -0.56,-1.88 -0.19,-3.81 -0.63,-5.45 -5.48,-0.82 -6.68,0.99 -14.59,-3.93 -8.28,-5.14 -13.21,-11.59 -19.13,-18.66l-6.48 -7.59c-1.35,-1.45 -1.63,-0.88 -2.49,-2.6 11.34,0.15 22.24,-2.01 34.02,0.05 1.7,0.3 3.15,0.97 4.33,0.15 -3.86,-1.9 -15.23,-2.52 -20.3,-2.2 -3.38,0.21 -6.71,0.8 -10.08,0.97 -2.53,0.13 -9.73,-0.3 -11.26,0.08z"></path> <path class="fil0" d="M266.56 249.06c1.86,0.79 2.55,0.93 3.32,-0.81 -0.73,-0.91 -1.85,-1.61 -3.47,-1.58l0.15 2.39z"></path> </g> </svg> 